<svg width="294" height="90" viewBox="0 0 294 90" fill="none" xmlns="http://www.w3.org/2000/svg">
<path d="M216.503 35H278L270.946 65H208L216.503 35Z" fill="url(#paint0_linear_768_70)"/>
<path d="M219.59 62H214.28L220.22 41.99C220.42 41.31 220.4 40.81 220.16 40.49C219.92 40.17 219.31 40.01 218.33 40.01L218.54 39.38C220.18 39.36 221.63 39.25 222.89 39.05C224.17 38.83 225.4 38.53 226.58 38.15L219.59 62ZM220.28 57.71C221.1 55.27 221.85 53.29 222.53 51.77C223.23 50.23 223.9 49.04 224.54 48.2C225.2 47.36 225.87 46.79 226.55 46.49C227.25 46.17 228 46.01 228.8 46.01C229.8 46.01 230.53 46.21 230.99 46.61C231.45 47.01 231.69 47.56 231.71 48.26C231.75 48.94 231.63 49.7 231.35 50.54L228.38 59.45C228.18 60.01 228.15 60.36 228.29 60.5C228.45 60.64 228.6 60.71 228.74 60.71C228.92 60.71 229.15 60.61 229.43 60.41C229.71 60.19 230.01 59.66 230.33 58.82L230.96 57.14H231.53L230.78 59.33C230.5 60.17 230.12 60.81 229.64 61.25C229.18 61.69 228.67 61.99 228.11 62.15C227.57 62.33 227.03 62.42 226.49 62.42C225.43 62.42 224.65 62.19 224.15 61.73C223.65 61.25 223.38 60.62 223.34 59.84C223.32 59.04 223.46 58.18 223.76 57.26L226.34 49.49C226.46 49.13 226.53 48.83 226.55 48.59C226.59 48.35 226.59 48.17 226.55 48.05C226.51 47.93 226.42 47.87 226.28 47.87C225.96 47.87 225.58 48.14 225.14 48.68C224.7 49.22 224.23 49.96 223.73 50.9C223.25 51.84 222.76 52.92 222.26 54.14C221.76 55.34 221.28 56.61 220.82 57.95C220.36 59.27 219.96 60.59 219.62 61.91L220.28 57.71ZM244.484 51.38C243.704 53.72 242.974 55.62 242.294 57.08C241.614 58.52 240.944 59.63 240.284 60.41C239.644 61.17 238.974 61.7 238.274 62C237.594 62.28 236.854 62.42 236.054 62.42C235.254 62.42 234.614 62.25 234.134 61.91C233.654 61.57 233.364 61.07 233.264 60.41C233.184 59.73 233.304 58.89 233.624 57.89L236.534 48.98C236.734 48.4 236.754 48.05 236.594 47.93C236.454 47.79 236.314 47.72 236.174 47.72C235.994 47.72 235.764 47.83 235.484 48.05C235.204 48.25 234.904 48.77 234.584 49.61L233.954 51.29H233.384L234.134 49.1C234.434 48.26 234.814 47.62 235.274 47.18C235.754 46.74 236.264 46.44 236.804 46.28C237.364 46.1 237.904 46.01 238.424 46.01C239.324 46.01 240.044 46.2 240.584 46.58C241.124 46.94 241.454 47.5 241.574 48.26C241.694 49.02 241.554 49.99 241.154 51.17L238.574 58.94C238.214 60.02 238.234 60.56 238.634 60.56C238.954 60.56 239.334 60.29 239.774 59.75C240.214 59.21 240.684 58.47 241.184 57.53C241.684 56.59 242.184 55.52 242.684 54.32C243.184 53.1 243.664 51.83 244.124 50.51C244.584 49.17 244.984 47.84 245.324 46.52L244.484 51.38ZM246.974 59.45C246.834 59.91 246.774 60.24 246.794 60.44C246.834 60.62 246.984 60.71 247.244 60.71C247.544 60.71 247.824 60.58 248.084 60.32C248.364 60.04 248.634 59.54 248.894 58.82L249.584 56.99H250.154L249.314 59.33C249.054 60.07 248.694 60.67 248.234 61.13C247.794 61.59 247.294 61.92 246.734 62.12C246.194 62.32 245.624 62.42 245.024 62.42C244.324 62.42 243.754 62.31 243.314 62.09C242.894 61.89 242.574 61.61 242.354 61.25C242.114 60.85 241.994 60.39 241.994 59.87C242.014 59.33 242.094 58.78 242.234 58.22L245.324 46.43C246.364 46.41 247.334 46.37 248.234 46.31C249.134 46.25 249.974 46.15 250.754 46.01L246.974 59.45ZM261.53 48.02C261.21 48.02 260.87 48.2 260.51 48.56C260.17 48.92 259.83 49.42 259.49 50.06C259.15 50.7 258.83 51.43 258.53 52.25C258.23 53.07 257.97 53.94 257.75 54.86L258.32 51.92C258.86 50.54 259.39 49.42 259.91 48.56C260.45 47.68 261.03 47.04 261.65 46.64C262.27 46.22 262.96 46.01 263.72 46.01C265.12 46.01 266.15 46.44 266.81 47.3C267.49 48.14 267.83 49.34 267.83 50.9C267.83 51.84 267.69 52.84 267.41 53.9C267.13 54.94 266.72 55.97 266.18 56.99C265.64 57.99 264.98 58.9 264.2 59.72C263.42 60.54 262.52 61.2 261.5 61.7C260.5 62.18 259.38 62.42 258.14 62.42C257.58 62.42 257.07 62.34 256.61 62.18C256.17 62.02 255.82 61.83 255.56 61.61L255.77 61.22C255.93 61.28 256.09 61.33 256.25 61.37C256.41 61.41 256.59 61.43 256.79 61.43C257.33 61.43 257.86 61.19 258.38 60.71C258.92 60.21 259.42 59.55 259.88 58.73C260.34 57.89 260.75 56.96 261.11 55.94C261.47 54.92 261.75 53.88 261.95 52.82C262.15 51.74 262.25 50.71 262.25 49.73C262.25 49.03 262.19 48.57 262.07 48.35C261.95 48.13 261.77 48.02 261.53 48.02ZM255.86 61.79C255.08 61.57 254.23 61.56 253.31 61.76C252.41 61.94 251.56 62.18 250.76 62.48L250.31 62.27C250.45 61.99 250.58 61.71 250.7 61.43C250.8 61.13 250.89 60.82 250.97 60.5L256.49 41.99C256.69 41.31 256.67 40.81 256.43 40.49C256.19 40.17 255.58 40.01 254.6 40.01L254.81 39.38C256.45 39.36 257.9 39.25 259.16 39.05C260.44 38.83 261.67 38.53 262.85 38.15L255.86 61.79Z" fill="white"/>
<path d="M145.53 16.64C145.89 15.3 146.1 14.28 146.16 13.58C146.24 12.86 146.1 12.34 145.74 12.02C145.4 11.7 144.77 11.48 143.85 11.36L144.03 10.76C144.43 10.78 144.94 10.8 145.56 10.82C146.2 10.84 146.8 10.85 147.36 10.85C147.82 10.85 148.27 10.84 148.71 10.82C149.17 10.8 149.56 10.78 149.88 10.76L149.7 11.36C149.06 11.48 148.55 11.69 148.17 11.99C147.79 12.29 147.46 12.76 147.18 13.4C146.92 14.02 146.64 14.9 146.34 16.04L144.48 23.27C143.76 26.03 142.78 28.15 141.54 29.63C140.82 30.47 139.92 31.15 138.84 31.67C137.78 32.17 136.63 32.42 135.39 32.42C133.57 32.42 132.12 32.15 131.04 31.61C129.96 31.07 129.19 30.39 128.73 29.57C128.33 28.81 128.12 27.94 128.1 26.96C128.1 25.96 128.29 24.76 128.67 23.36L131.16 13.94C131.36 13.2 131.44 12.66 131.4 12.32C131.36 11.96 131.18 11.72 130.86 11.6C130.56 11.46 130.07 11.38 129.39 11.36L129.57 10.76C130.15 10.78 130.95 10.8 131.97 10.82C133.01 10.84 134.1 10.85 135.24 10.85C136.24 10.85 137.19 10.84 138.09 10.82C138.99 10.8 139.79 10.78 140.49 10.76L140.31 11.36C139.63 11.38 139.1 11.46 138.72 11.6C138.34 11.72 138.04 11.96 137.82 12.32C137.62 12.66 137.42 13.2 137.22 13.94L134.58 23.87C134.22 25.25 133.99 26.42 133.89 27.38C133.79 28.32 133.81 29.09 133.95 29.69C134.11 30.27 134.36 30.7 134.7 30.98C135.04 31.24 135.46 31.37 135.96 31.37C137.46 31.37 138.71 31.04 139.71 30.38C140.71 29.7 141.53 28.77 142.17 27.59C142.81 26.41 143.32 25.08 143.7 23.6L145.53 16.64ZM152.464 32H147.154L150.814 18.98C150.914 18.66 150.974 18.41 150.994 18.23C151.014 18.05 150.984 17.92 150.904 17.84C150.844 17.76 150.724 17.72 150.544 17.72C150.244 17.72 149.964 17.86 149.704 18.14C149.444 18.4 149.174 18.89 148.894 19.61L148.204 21.44H147.634L148.474 19.1C148.854 18.04 149.374 17.26 150.034 16.76C150.694 16.26 151.544 16.01 152.584 16.01C153.364 16.01 153.984 16.14 154.444 16.4C154.904 16.64 155.234 16.97 155.434 17.39C155.634 17.81 155.734 18.27 155.734 18.77C155.734 19.25 155.674 19.73 155.554 20.21L152.464 32ZM153.154 27.71C153.974 25.27 154.724 23.29 155.404 21.77C156.104 20.23 156.774 19.04 157.414 18.2C158.074 17.36 158.744 16.79 159.424 16.49C160.124 16.17 160.874 16.01 161.674 16.01C162.674 16.01 163.404 16.21 163.864 16.61C164.324 17.01 164.564 17.56 164.584 18.26C164.624 18.94 164.504 19.7 164.224 20.54L161.254 29.45C161.054 30.01 161.024 30.36 161.164 30.5C161.324 30.64 161.474 30.71 161.614 30.71C161.794 30.71 162.024 30.61 162.304 30.41C162.584 30.19 162.884 29.66 163.204 28.82L163.834 27.14H164.404L163.654 29.33C163.374 30.17 162.994 30.81 162.514 31.25C162.054 31.69 161.544 31.99 160.984 32.15C160.444 32.33 159.904 32.42 159.364 32.42C158.744 32.42 158.204 32.33 157.744 32.15C157.284 31.97 156.924 31.7 156.664 31.34C156.364 30.92 156.194 30.4 156.154 29.78C156.134 29.14 156.294 28.3 156.634 27.26L159.214 19.49C159.334 19.13 159.404 18.83 159.424 18.59C159.464 18.35 159.464 18.17 159.424 18.05C159.384 17.93 159.294 17.87 159.154 17.87C158.834 17.87 158.454 18.14 158.014 18.68C157.574 19.22 157.104 19.96 156.604 20.9C156.124 21.84 155.634 22.92 155.134 24.14C154.634 25.34 154.154 26.61 153.694 27.95C153.234 29.27 152.834 30.59 152.494 31.91L153.154 27.71ZM171.759 30.38C171.959 30.38 172.169 30.3 172.389 30.14C172.609 29.98 172.839 29.71 173.079 29.33C173.319 28.93 173.579 28.38 173.859 27.68C174.139 26.98 174.439 26.08 174.759 24.98L173.979 28.25C173.659 29.31 173.249 30.15 172.749 30.77C172.269 31.37 171.719 31.79 171.099 32.03C170.499 32.29 169.849 32.42 169.149 32.42C167.889 32.42 166.949 32.1 166.329 31.46C165.729 30.8 165.429 29.87 165.429 28.67C165.429 27.51 165.619 26.33 165.999 25.13C166.399 23.93 166.929 22.79 167.589 21.71C168.269 20.61 169.019 19.64 169.839 18.8C170.679 17.94 171.549 17.26 172.449 16.76C173.349 16.26 174.219 16.01 175.059 16.01C175.699 16.01 176.189 16.21 176.529 16.61C176.889 17.01 177.019 17.72 176.919 18.74L176.589 18.92C176.689 18.42 176.689 18.06 176.589 17.84C176.489 17.6 176.319 17.48 176.079 17.48C175.739 17.48 175.349 17.7 174.909 18.14C174.489 18.56 174.049 19.15 173.589 19.91C173.149 20.65 172.729 21.51 172.329 22.49C171.949 23.45 171.639 24.47 171.399 25.55C171.179 26.63 171.069 27.71 171.069 28.79C171.069 29.35 171.119 29.76 171.219 30.02C171.319 30.26 171.499 30.38 171.759 30.38ZM177.309 16.46C178.409 16.44 179.379 16.4 180.219 16.34C181.079 16.26 181.919 16.15 182.739 16.01L178.689 29.45C178.589 29.77 178.539 30.03 178.539 30.23C178.559 30.41 178.609 30.54 178.689 30.62C178.789 30.68 178.909 30.71 179.049 30.71C179.229 30.71 179.459 30.61 179.739 30.41C180.019 30.19 180.319 29.66 180.639 28.82L181.269 27.14H181.839L181.089 29.33C180.809 30.17 180.429 30.81 179.949 31.25C179.489 31.69 178.979 31.99 178.419 32.15C177.879 32.33 177.339 32.42 176.799 32.42C175.579 32.42 174.709 32.07 174.189 31.37C173.889 30.95 173.719 30.4 173.679 29.72C173.659 29.04 173.789 28.22 174.069 27.26L177.309 16.46ZM188.5 32H183.19L186.85 18.98C186.95 18.66 186.99 18.41 186.97 18.23C186.97 18.05 186.93 17.92 186.85 17.84C186.79 17.76 186.68 17.72 186.52 17.72C186.24 17.72 185.97 17.87 185.71 18.17C185.45 18.45 185.19 18.93 184.93 19.61L184.24 21.44H183.67L184.51 19.1C184.79 18.34 185.15 17.74 185.59 17.3C186.03 16.84 186.53 16.51 187.09 16.31C187.65 16.11 188.23 16.01 188.83 16.01C189.57 16.01 190.15 16.13 190.57 16.37C190.99 16.61 191.29 16.94 191.47 17.36C191.67 17.76 191.76 18.21 191.74 18.71C191.74 19.21 191.68 19.71 191.56 20.21L188.5 32ZM194.92 19.49C195 19.21 195.06 18.97 195.1 18.77C195.16 18.57 195.17 18.42 195.13 18.32C195.11 18.22 195.02 18.17 194.86 18.17C194.48 18.17 194.08 18.4 193.66 18.86C193.24 19.32 192.8 19.98 192.34 20.84C191.88 21.68 191.41 22.7 190.93 23.9C190.47 25.1 190 26.45 189.52 27.95L189.13 27.71C189.93 24.89 190.72 22.62 191.5 20.9C192.3 19.18 193.19 17.94 194.17 17.18C195.17 16.4 196.34 16.01 197.68 16.01C198.34 16.01 198.86 16.12 199.24 16.34C199.64 16.54 199.92 16.84 200.08 17.24C200.26 17.62 200.33 18.09 200.29 18.65C200.27 19.21 200.16 19.84 199.96 20.54L196.66 32H191.32L194.92 19.49ZM203.26 19.49C203.42 19.03 203.49 18.7 203.47 18.5C203.47 18.28 203.39 18.17 203.23 18.17C202.97 18.17 202.65 18.33 202.27 18.65C201.91 18.95 201.49 19.47 201.01 20.21C200.55 20.93 200.05 21.92 199.51 23.18C198.99 24.44 198.43 26.02 197.83 27.92L197.5 27.77C198.16 25.35 198.81 23.38 199.45 21.86C200.11 20.32 200.78 19.13 201.46 18.29C202.16 17.43 202.88 16.84 203.62 16.52C204.38 16.18 205.17 16.01 205.99 16.01C206.87 16.01 207.53 16.2 207.97 16.58C208.41 16.94 208.65 17.46 208.69 18.14C208.73 18.8 208.59 19.6 208.27 20.54L205.3 29.45C205.1 30.01 205.07 30.36 205.21 30.5C205.37 30.64 205.52 30.71 205.66 30.71C205.84 30.71 206.07 30.61 206.35 30.41C206.63 30.19 206.93 29.66 207.25 28.82L207.88 27.14H208.45L207.7 29.33C207.42 30.17 207.04 30.81 206.56 31.25C206.1 31.69 205.59 31.99 205.03 32.15C204.49 32.33 203.95 32.42 203.41 32.42C202.75 32.42 202.18 32.31 201.7 32.09C201.24 31.89 200.88 31.58 200.62 31.16C200.36 30.74 200.23 30.21 200.23 29.57C200.23 28.91 200.38 28.14 200.68 27.26L203.26 19.49ZM219.961 18.02C219.641 18.02 219.301 18.2 218.941 18.56C218.601 18.92 218.261 19.42 217.921 20.06C217.581 20.7 217.261 21.43 216.961 22.25C216.661 23.07 216.401 23.94 216.181 24.86L216.751 21.92C217.291 20.54 217.821 19.42 218.341 18.56C218.881 17.68 219.461 17.04 220.081 16.64C220.701 16.22 221.391 16.01 222.151 16.01C223.551 16.01 224.581 16.44 225.241 17.3C225.921 18.14 226.261 19.34 226.261 20.9C226.261 21.84 226.121 22.84 225.841 23.9C225.561 24.94 225.151 25.97 224.611 26.99C224.071 27.99 223.411 28.9 222.631 29.72C221.851 30.54 220.951 31.2 219.931 31.7C218.931 32.18 217.811 32.42 216.571 32.42C216.011 32.42 215.501 32.34 215.041 32.18C214.601 32.02 214.251 31.83 213.991 31.61L214.201 31.22C214.361 31.28 214.521 31.33 214.681 31.37C214.841 31.41 215.021 31.43 215.221 31.43C215.761 31.43 216.291 31.19 216.811 30.71C217.351 30.21 217.851 29.55 218.311 28.73C218.771 27.89 219.181 26.96 219.541 25.94C219.901 24.92 220.181 23.88 220.381 22.82C220.581 21.74 220.681 20.71 220.681 19.73C220.681 19.03 220.621 18.57 220.501 18.35C220.381 18.13 220.201 18.02 219.961 18.02ZM214.291 31.79C213.511 31.57 212.661 31.56 211.741 31.76C210.841 31.94 209.991 32.18 209.191 32.48L208.741 32.27C208.881 31.99 209.011 31.71 209.131 31.43C209.231 31.13 209.321 30.82 209.401 30.5L214.921 11.99C215.121 11.31 215.101 10.81 214.861 10.49C214.621 10.17 214.011 10.01 213.031 10.01L213.241 9.38C214.881 9.36 216.331 9.25 217.591 9.05C218.871 8.83 220.101 8.53 221.281 8.15L214.291 31.79ZM233.077 30.38C233.277 30.38 233.487 30.3 233.707 30.14C233.927 29.98 234.157 29.71 234.397 29.33C234.637 28.93 234.897 28.38 235.177 27.68C235.457 26.98 235.757 26.08 236.077 24.98L235.297 28.25C234.977 29.31 234.567 30.15 234.067 30.77C233.587 31.37 233.037 31.79 232.417 32.03C231.817 32.29 231.167 32.42 230.467 32.42C229.207 32.42 228.267 32.1 227.647 31.46C227.047 30.8 226.747 29.87 226.747 28.67C226.747 27.51 226.937 26.33 227.317 25.13C227.717 23.93 228.247 22.79 228.907 21.71C229.587 20.61 230.337 19.64 231.157 18.8C231.997 17.94 232.867 17.26 233.767 16.76C234.667 16.26 235.537 16.01 236.377 16.01C237.017 16.01 237.507 16.21 237.847 16.61C238.207 17.01 238.337 17.72 238.237 18.74L237.907 18.92C238.007 18.42 238.007 18.06 237.907 17.84C237.807 17.6 237.637 17.48 237.397 17.48C237.057 17.48 236.667 17.7 236.227 18.14C235.807 18.56 235.367 19.15 234.907 19.91C234.467 20.65 234.047 21.51 233.647 22.49C233.267 23.45 232.957 24.47 232.717 25.55C232.497 26.63 232.387 27.71 232.387 28.79C232.387 29.35 232.437 29.76 232.537 30.02C232.637 30.26 232.817 30.38 233.077 30.38ZM238.627 16.46C239.727 16.44 240.697 16.4 241.537 16.34C242.397 16.26 243.237 16.15 244.057 16.01L240.007 29.45C239.907 29.77 239.857 30.03 239.857 30.23C239.877 30.41 239.927 30.54 240.007 30.62C240.107 30.68 240.227 30.71 240.367 30.71C240.547 30.71 240.777 30.61 241.057 30.41C241.337 30.19 241.637 29.66 241.957 28.82L242.587 27.14H243.157L242.407 29.33C242.127 30.17 241.747 30.81 241.267 31.25C240.807 31.69 240.297 31.99 239.737 32.15C239.197 32.33 238.657 32.42 238.117 32.42C236.897 32.42 236.027 32.07 235.507 31.37C235.207 30.95 235.037 30.4 234.997 29.72C234.977 29.04 235.107 28.22 235.387 27.26L238.627 16.46Z" fill="#284695"/>
<path d="M121.41 47.03L121.59 46.43H132.24L132.06 47.03H121.41ZM133.2 39.14C132.92 39.14 132.66 39.18 132.42 39.26C132.18 39.32 131.95 39.44 131.73 39.62C131.55 39.78 131.37 39.99 131.19 40.25C131.03 40.51 130.87 40.83 130.71 41.21C130.57 41.59 130.43 42.05 130.29 42.59L123.69 67.22C122.61 67.24 121.64 67.28 120.78 67.34C119.94 67.4 119.1 67.5 118.26 67.64L123.84 46.88C124.3 45.12 124.84 43.67 125.46 42.53C126.1 41.37 126.85 40.48 127.71 39.86C128.35 39.4 129.04 39.07 129.78 38.87C130.54 38.65 131.36 38.54 132.24 38.54C133.72 38.54 134.87 38.84 135.69 39.44C136.53 40.04 136.95 40.86 136.95 41.9C136.95 42.36 136.81 42.83 136.53 43.31C136.27 43.77 135.9 44.15 135.42 44.45C134.94 44.75 134.37 44.9 133.71 44.9C132.97 44.9 132.38 44.73 131.94 44.39C131.52 44.03 131.31 43.52 131.31 42.86C131.31 42.1 131.54 41.4 132 40.76C132.48 40.12 133.14 39.64 133.98 39.32C133.84 39.26 133.71 39.22 133.59 39.2C133.47 39.16 133.34 39.14 133.2 39.14ZM141.134 46.61C140.794 46.61 140.394 46.9 139.934 47.48C139.474 48.04 139.004 48.8 138.524 49.76C138.044 50.72 137.594 51.79 137.174 52.97C136.774 54.15 136.444 55.36 136.184 56.6C135.944 57.84 135.824 59.02 135.824 60.14C135.824 60.76 135.864 61.2 135.944 61.46C136.044 61.7 136.194 61.82 136.394 61.82C136.714 61.82 137.094 61.55 137.534 61.01C137.994 60.47 138.454 59.74 138.914 58.82C139.394 57.9 139.834 56.86 140.234 55.7C140.654 54.54 140.994 53.33 141.254 52.07C141.514 50.79 141.644 49.55 141.644 48.35C141.644 47.59 141.594 47.11 141.494 46.91C141.394 46.71 141.274 46.61 141.134 46.61ZM130.844 57.32C130.844 56.38 130.974 55.39 131.234 54.35C131.494 53.31 131.894 52.3 132.434 51.32C132.974 50.32 133.654 49.42 134.474 48.62C135.314 47.82 136.294 47.19 137.414 46.73C138.554 46.25 139.844 46.01 141.284 46.01C143.024 46.01 144.344 46.45 145.244 47.33C146.164 48.21 146.624 49.47 146.624 51.11C146.624 52.05 146.494 53.04 146.234 54.08C145.974 55.12 145.574 56.14 145.034 57.14C144.494 58.12 143.804 59.01 142.964 59.81C142.144 60.61 141.164 61.25 140.024 61.73C138.904 62.19 137.624 62.42 136.184 62.42C134.444 62.42 133.114 61.98 132.194 61.1C131.294 60.22 130.844 58.96 130.844 57.32ZM152.763 62H147.453L151.113 48.98C151.233 48.52 151.273 48.2 151.233 48.02C151.193 47.82 151.063 47.72 150.843 47.72C150.543 47.72 150.263 47.86 150.003 48.14C149.743 48.4 149.473 48.89 149.193 49.61L148.503 51.44H147.933L148.773 49.1C149.053 48.34 149.403 47.74 149.823 47.3C150.263 46.84 150.773 46.51 151.353 46.31C151.933 46.11 152.563 46.01 153.243 46.01C153.923 46.01 154.463 46.14 154.863 46.4C155.263 46.64 155.553 46.97 155.733 47.39C155.913 47.81 156.003 48.27 156.003 48.77C156.023 49.25 155.973 49.73 155.853 50.21L152.763 62ZM160.413 46.61C160.033 46.61 159.623 46.67 159.183 46.79C158.763 46.91 158.313 47.22 157.833 47.72C157.373 48.2 156.873 48.98 156.333 50.06C155.813 51.14 155.253 52.64 154.653 54.56C154.053 56.48 153.423 58.93 152.763 61.91L153.393 57.71C153.993 55.37 154.543 53.45 155.043 51.95C155.543 50.43 156.043 49.24 156.543 48.38C157.043 47.5 157.593 46.89 158.193 46.55C158.793 46.19 159.493 46.01 160.293 46.01C161.233 46.01 161.953 46.29 162.453 46.85C162.953 47.41 163.203 48.1 163.203 48.92C163.203 49.58 163.053 50.2 162.753 50.78C162.473 51.34 162.073 51.8 161.553 52.16C161.053 52.5 160.473 52.67 159.813 52.67C159.073 52.67 158.513 52.48 158.133 52.1C157.753 51.72 157.563 51.16 157.563 50.42C157.563 49.82 157.713 49.26 158.013 48.74C158.313 48.22 158.713 47.78 159.213 47.42C159.713 47.04 160.253 46.8 160.833 46.7C160.773 46.68 160.703 46.66 160.623 46.64C160.563 46.62 160.493 46.61 160.413 46.61ZM174.064 51.38C173.284 53.72 172.554 55.62 171.874 57.08C171.194 58.52 170.524 59.63 169.864 60.41C169.224 61.17 168.554 61.7 167.854 62C167.174 62.28 166.434 62.42 165.634 62.42C164.834 62.42 164.194 62.25 163.714 61.91C163.234 61.57 162.944 61.07 162.844 60.41C162.764 59.73 162.884 58.89 163.204 57.89L166.114 48.98C166.314 48.4 166.334 48.05 166.174 47.93C166.034 47.79 165.894 47.72 165.754 47.72C165.574 47.72 165.344 47.83 165.064 48.05C164.784 48.25 164.484 48.77 164.164 49.61L163.534 51.29H162.964L163.714 49.1C164.014 48.26 164.394 47.62 164.854 47.18C165.334 46.74 165.844 46.44 166.384 46.28C166.944 46.1 167.484 46.01 168.004 46.01C168.904 46.01 169.624 46.2 170.164 46.58C170.704 46.94 171.034 47.5 171.154 48.26C171.274 49.02 171.134 49.99 170.734 51.17L168.154 58.94C167.794 60.02 167.814 60.56 168.214 60.56C168.534 60.56 168.914 60.29 169.354 59.75C169.794 59.21 170.264 58.47 170.764 57.53C171.264 56.59 171.764 55.52 172.264 54.32C172.764 53.1 173.244 51.83 173.704 50.51C174.164 49.17 174.564 47.84 174.904 46.52L174.064 51.38ZM176.554 59.45C176.414 59.91 176.354 60.24 176.374 60.44C176.414 60.62 176.564 60.71 176.824 60.71C177.124 60.71 177.404 60.58 177.664 60.32C177.944 60.04 178.214 59.54 178.474 58.82L179.164 56.99H179.734L178.894 59.33C178.634 60.07 178.274 60.67 177.814 61.13C177.374 61.59 176.874 61.92 176.314 62.12C175.774 62.32 175.204 62.42 174.604 62.42C173.904 62.42 173.334 62.31 172.894 62.09C172.474 61.89 172.154 61.61 171.934 61.25C171.694 60.85 171.574 60.39 171.574 59.87C171.594 59.33 171.674 58.78 171.814 58.22L174.904 46.43C175.944 46.41 176.914 46.37 177.814 46.31C178.714 46.25 179.554 46.15 180.334 46.01L176.554 59.45ZM186.25 62H180.94L184.6 48.98C184.7 48.66 184.74 48.41 184.72 48.23C184.72 48.05 184.68 47.92 184.6 47.84C184.54 47.76 184.43 47.72 184.27 47.72C183.99 47.72 183.72 47.87 183.46 48.17C183.2 48.45 182.94 48.93 182.68 49.61L181.99 51.44H181.42L182.26 49.1C182.54 48.34 182.9 47.74 183.34 47.3C183.78 46.84 184.28 46.51 184.84 46.31C185.4 46.11 185.98 46.01 186.58 46.01C187.32 46.01 187.9 46.13 188.32 46.37C188.74 46.61 189.04 46.94 189.22 47.36C189.42 47.76 189.51 48.21 189.49 48.71C189.49 49.21 189.43 49.71 189.31 50.21L186.25 62ZM192.67 49.49C192.75 49.21 192.81 48.97 192.85 48.77C192.91 48.57 192.92 48.42 192.88 48.32C192.86 48.22 192.77 48.17 192.61 48.17C192.23 48.17 191.83 48.4 191.41 48.86C190.99 49.32 190.55 49.98 190.09 50.84C189.63 51.68 189.16 52.7 188.68 53.9C188.22 55.1 187.75 56.45 187.27 57.95L186.88 57.71C187.68 54.89 188.47 52.62 189.25 50.9C190.05 49.18 190.94 47.94 191.92 47.18C192.92 46.4 194.09 46.01 195.43 46.01C196.09 46.01 196.61 46.12 196.99 46.34C197.39 46.54 197.67 46.84 197.83 47.24C198.01 47.62 198.08 48.09 198.04 48.65C198.02 49.21 197.91 49.84 197.71 50.54L194.41 62H189.07L192.67 49.49ZM201.01 49.49C201.17 49.03 201.24 48.7 201.22 48.5C201.22 48.28 201.14 48.17 200.98 48.17C200.72 48.17 200.4 48.33 200.02 48.65C199.66 48.95 199.24 49.47 198.76 50.21C198.3 50.93 197.8 51.92 197.26 53.18C196.74 54.44 196.18 56.02 195.58 57.92L195.25 57.77C195.91 55.35 196.56 53.38 197.2 51.86C197.86 50.32 198.53 49.13 199.21 48.29C199.91 47.43 200.63 46.84 201.37 46.52C202.13 46.18 202.92 46.01 203.74 46.01C204.62 46.01 205.28 46.2 205.72 46.58C206.16 46.94 206.4 47.46 206.44 48.14C206.48 48.8 206.34 49.6 206.02 50.54L203.05 59.45C202.85 60.01 202.82 60.36 202.96 60.5C203.12 60.64 203.27 60.71 203.41 60.71C203.59 60.71 203.82 60.61 204.1 60.41C204.38 60.19 204.68 59.66 205 58.82L205.63 57.14H206.2L205.45 59.33C205.17 60.17 204.79 60.81 204.31 61.25C203.85 61.69 203.34 61.99 202.78 62.15C202.24 62.33 201.7 62.42 201.16 62.42C200.5 62.42 199.93 62.31 199.45 62.09C198.99 61.89 198.63 61.58 198.37 61.16C198.11 60.74 197.98 60.21 197.98 59.57C197.98 58.91 198.13 58.14 198.43 57.26L201.01 49.49Z" fill="#284695"/>
<path d="M11.7346 8.16382H84.6895C102.979 8.16382 112.124 8.16382 116.816 14.1241C121.508 20.0844 119.362 28.9736 115.068 46.7521L111.388 61.9908C108.615 73.4701 107.229 79.2097 102.976 82.5578C98.7232 85.9059 92.8185 85.9059 81.0092 85.9059H36.3229C19.4358 85.9059 10.9922 85.9059 6.31643 80.4713C1.64062 75.0367 2.90084 66.6878 5.42129 49.9898L11.7346 8.16382Z" stroke="url(#paint1_linear_768_70)" stroke-width="3.49839"/>
<path fill-rule="evenodd" clip-rule="evenodd" d="M75.1896 24.1195L75.2566 50.558C74.8584 65.0262 63.5193 76.6251 49.2463 76.6613C34.8445 76.6979 23.1402 64.9806 23.1035 50.4896L23.0369 24.2518L36.0751 24.2187L36.1416 50.4566C36.16 57.7021 42.0121 63.5607 49.213 63.5424C56.2882 63.5245 61.9758 57.7377 62.2177 50.2855L62.1514 24.1526L75.1896 24.1195Z" stroke="url(#paint2_linear_768_70)" stroke-width="3.8871" stroke-linecap="round" stroke-linejoin="round"/>
<path d="M75.4731 30.735C78.6214 28.2282 87.4948 25.6405 92.2496 30.4354C92.9794 31.3694 94.1073 32.427 94.6622 32.4719C101.429 33.0196 102.995 25.0468 100.582 23.01C98.1696 20.9731 98.1697 20.9739 98.1697 20.9739C87.9795 11.7548 72.0254 16.4653 62.0727 22.9754" stroke="#155FFC" stroke-width="3.8871" stroke-linecap="round" stroke-linejoin="round"/>
<path fill-rule="evenodd" clip-rule="evenodd" d="M88.6591 42.4306C89.9266 42.3227 91.198 42.5877 92.3169 43.193C93.4358 43.7983 94.3533 44.7174 94.9567 45.8373C95.5601 46.9573 95.8229 48.2291 95.7128 49.4965C95.6028 50.7638 95.1247 51.9713 94.3374 52.9705C93.5501 53.9697 92.4878 54.7169 91.2814 55.1203C90.0749 55.5237 88.7768 55.5656 87.5469 55.2409C86.3169 54.9162 85.2087 54.2391 84.3585 53.2928C83.5083 52.3465 82.9533 51.1723 82.7618 49.9147L82.6884 49.0473C82.6188 45.6481 85.2086 42.7226 88.6591 42.4306Z" stroke="#155FFC" stroke-width="3.8871" stroke-linecap="round" stroke-linejoin="round"/>
<path d="M62.2305 23.9033L62.1193 76.3366L75.1547 76.3642L75.266 23.8885L62.2306 23.8608" stroke="#155FFC" stroke-width="3.8871" stroke-linecap="round" stroke-linejoin="round"/>
<path d="M116.793 83V76.4545H120.743V77.1577H117.585V79.3693H120.538V80.0724H117.585V82.2969H120.794V83H116.793ZM124.715 76.4545L126.403 79.1776H126.454L128.141 76.4545H129.074L127.016 79.7273L129.074 83H128.141L126.454 80.3281H126.403L124.715 83H123.782L125.891 79.7273L123.782 76.4545H124.715ZM132.266 83V76.4545H134.478C134.991 76.4545 135.411 76.5472 135.737 76.7326C136.065 76.9158 136.308 77.1641 136.466 77.4773C136.623 77.7905 136.702 78.1399 136.702 78.5256C136.702 78.9112 136.623 79.2617 136.466 79.5771C136.31 79.8924 136.069 80.1438 135.743 80.3313C135.417 80.5167 135 80.6094 134.49 80.6094H132.905V79.9062H134.465C134.816 79.9062 135.099 79.8455 135.312 79.7241C135.525 79.6026 135.679 79.4386 135.775 79.2319C135.873 79.0231 135.922 78.7876 135.922 78.5256C135.922 78.2635 135.873 78.0291 135.775 77.8224C135.679 77.6158 135.524 77.4538 135.309 77.3366C135.093 77.2173 134.808 77.1577 134.452 77.1577H133.059V83H132.266ZM140.139 83V76.4545H142.35C142.862 76.4545 143.282 76.5419 143.61 76.7166C143.938 76.8892 144.181 77.1268 144.338 77.4293C144.496 77.7319 144.575 78.076 144.575 78.4616C144.575 78.8473 144.496 79.1893 144.338 79.4876C144.181 79.7859 143.939 80.0202 143.613 80.1907C143.287 80.359 142.87 80.4432 142.363 80.4432H140.573V79.7273H142.338C142.687 79.7273 142.968 79.6761 143.181 79.5739C143.397 79.4716 143.552 79.3267 143.648 79.1392C143.746 78.9496 143.795 78.7237 143.795 78.4616C143.795 78.1996 143.746 77.9705 143.648 77.7745C143.55 77.5785 143.393 77.4272 143.178 77.3207C142.963 77.212 142.679 77.1577 142.325 77.1577H140.931V83H140.139ZM143.22 80.0597L144.831 83H143.91L142.325 80.0597H143.22ZM148.056 83V76.4545H152.006V77.1577H148.848V79.3693H151.801V80.0724H148.848V82.2969H152.057V83H148.056ZM149.679 75.7898L150.459 74.3068H151.341L150.344 75.7898H149.679ZM159.174 78.0909C159.136 77.767 158.98 77.5156 158.707 77.3366C158.435 77.1577 158.1 77.0682 157.704 77.0682C157.414 77.0682 157.161 77.1151 156.943 77.2088C156.728 77.3026 156.56 77.4315 156.438 77.5955C156.319 77.7596 156.259 77.946 156.259 78.1548C156.259 78.3295 156.301 78.4798 156.384 78.6055C156.469 78.729 156.578 78.8324 156.71 78.9155C156.842 78.9964 156.981 79.0636 157.125 79.1168C157.27 79.168 157.404 79.2095 157.525 79.2415L158.19 79.4205C158.36 79.4652 158.55 79.527 158.759 79.6058C158.97 79.6847 159.171 79.7923 159.363 79.9286C159.557 80.0629 159.716 80.2354 159.842 80.4464C159.968 80.6573 160.031 80.9162 160.031 81.223C160.031 81.5767 159.938 81.8963 159.753 82.1818C159.569 82.4673 159.301 82.6942 158.947 82.8626C158.596 83.0309 158.168 83.1151 157.666 83.1151C157.197 83.1151 156.791 83.0394 156.448 82.8881C156.107 82.7369 155.839 82.5259 155.643 82.2553C155.449 81.9847 155.339 81.6705 155.313 81.3125H156.131C156.153 81.5597 156.236 81.7642 156.381 81.9261C156.528 82.0859 156.713 82.2053 156.937 82.2841C157.163 82.3608 157.406 82.3991 157.666 82.3991C157.968 82.3991 158.24 82.3501 158.481 82.2521C158.721 82.152 158.912 82.0135 159.053 81.8366C159.193 81.6577 159.264 81.4489 159.264 81.2102C159.264 80.9929 159.203 80.8161 159.081 80.6797C158.96 80.5433 158.8 80.4325 158.602 80.3473C158.404 80.2621 158.19 80.1875 157.96 80.1236L157.154 79.8935C156.643 79.7464 156.238 79.5366 155.94 79.2638C155.641 78.9911 155.492 78.6342 155.492 78.1932C155.492 77.8267 155.591 77.5071 155.79 77.2344C155.99 76.9595 156.258 76.7464 156.595 76.5952C156.934 76.4418 157.312 76.3651 157.73 76.3651C158.151 76.3651 158.526 76.4407 158.855 76.592C159.183 76.7411 159.443 76.9457 159.634 77.2056C159.828 77.4656 159.931 77.7607 159.941 78.0909H159.174ZM163.762 83H162.931L165.335 76.4545H166.153L168.556 83H167.725L165.769 77.4901H165.718L163.762 83ZM164.069 80.4432H167.419V81.1463H164.069V80.4432ZM170.613 77.1577V76.4545H175.522V77.1577H173.464V83H172.671V77.1577H170.613ZM178.906 83V76.4545H182.856V77.1577H179.698V79.3693H182.651V80.0724H179.698V82.2969H182.907V83H178.906ZM191.136 83V76.4545H191.928V82.2969H194.971V83H191.136ZM199.151 76.4545V83H198.358V76.4545H199.151ZM202.9 83V76.4545H205.188C205.644 76.4545 206.02 76.5334 206.317 76.6911C206.613 76.8466 206.833 77.0565 206.978 77.3207C207.123 77.5827 207.196 77.8736 207.196 78.1932C207.196 78.4744 207.145 78.7067 207.045 78.8899C206.947 79.0732 206.817 79.218 206.655 79.3246C206.496 79.4311 206.322 79.5099 206.134 79.5611V79.625C206.335 79.6378 206.536 79.7081 206.739 79.8359C206.941 79.9638 207.11 80.147 207.247 80.3857C207.383 80.6243 207.451 80.9162 207.451 81.2614C207.451 81.5895 207.377 81.8846 207.228 82.1467C207.078 82.4087 206.843 82.6165 206.521 82.7699C206.199 82.9233 205.781 83 205.265 83H202.9ZM203.693 82.2969H205.265C205.783 82.2969 206.15 82.1967 206.368 81.9964C206.587 81.794 206.697 81.549 206.697 81.2614C206.697 81.0398 206.641 80.8352 206.528 80.6477C206.415 80.4581 206.254 80.3068 206.045 80.1939C205.836 80.0788 205.589 80.0213 205.304 80.0213H203.693V82.2969ZM203.693 79.331H205.163C205.402 79.331 205.617 79.2841 205.808 79.1903C206.002 79.0966 206.156 78.9645 206.269 78.794C206.384 78.6236 206.441 78.4233 206.441 78.1932C206.441 77.9055 206.341 77.6616 206.141 77.4613C205.941 77.2589 205.623 77.1577 205.188 77.1577H203.693V79.331ZM210.914 83V76.4545H213.125C213.637 76.4545 214.056 76.5419 214.385 76.7166C214.713 76.8892 214.956 77.1268 215.113 77.4293C215.271 77.7319 215.35 78.076 215.35 78.4616C215.35 78.8473 215.271 79.1893 215.113 79.4876C214.956 79.7859 214.714 80.0202 214.388 80.1907C214.062 80.359 213.645 80.4432 213.138 80.4432H211.348V79.7273H213.112C213.462 79.7273 213.743 79.6761 213.956 79.5739C214.171 79.4716 214.327 79.3267 214.423 79.1392C214.521 78.9496 214.57 78.7237 214.57 78.4616C214.57 78.1996 214.521 77.9705 214.423 77.7745C214.325 77.5785 214.168 77.4272 213.953 77.3207C213.738 77.212 213.453 77.1577 213.1 77.1577H211.706V83H210.914ZM213.995 80.0597L215.605 83H214.685L213.1 80.0597H213.995ZM218.83 83V76.4545H222.781V77.1577H219.623V79.3693H222.576V80.0724H219.623V82.2969H222.832V83H218.83ZM226.369 76.4545H227.315L229.54 81.8878H229.617L231.841 76.4545H232.787V83H232.046V78.027H231.982L229.936 83H229.22L227.175 78.027H227.111V83H226.369V76.4545ZM236.536 83V76.4545H240.486V77.1577H237.329V79.3693H240.282V80.0724H237.329V82.2969H240.538V83H236.536ZM249.265 76.4545V83H248.498L244.932 77.8608H244.868V83H244.075V76.4545H244.842L248.422 81.6065H248.486V76.4545H249.265ZM252.654 77.1577V76.4545H257.563V77.1577H255.504V83H254.712V77.1577H252.654ZM260.946 83V76.4545H264.896V77.1577H261.739V79.3693H264.692V80.0724H261.739V82.2969H264.947V83H260.946Z" fill="black"/>
<defs>
<linearGradient id="paint0_linear_768_70" x1="286.205" y1="50" x2="223.553" y2="29.6167" gradientUnits="userSpaceOnUse">
<stop stop-color="#2561FF" stop-opacity="0.914231"/>
<stop offset="0.5" stop-color="#155FFC"/>
<stop offset="1" stop-color="#6D96FF" stop-opacity="0.914231"/>
</linearGradient>
<linearGradient id="paint1_linear_768_70" x1="138.967" y1="47.0348" x2="21.6899" y2="20.8713" gradientUnits="userSpaceOnUse">
<stop stop-color="#2561FF" stop-opacity="0.914231"/>
<stop offset="0.5" stop-color="#155FFC"/>
<stop offset="1" stop-color="#6D96FF" stop-opacity="0.914231"/>
</linearGradient>
<linearGradient id="paint2_linear_768_70" x1="16.9907" y1="50.5051" x2="67.6546" y2="57.3949" gradientUnits="userSpaceOnUse">
<stop stop-color="#6D96FF" stop-opacity="0.914231"/>
<stop offset="0.5" stop-color="#155FFC"/>
<stop offset="1" stop-color="#2561FF" stop-opacity="0.914231"/>
</linearGradient>
</defs>
</svg>
