<svg width="245" height="44" viewBox="0 0 245 44" fill="none" xmlns="http://www.w3.org/2000/svg">
          <path class="line" d="M6.03774 2.3999H43.5746C52.9851 2.3999 57.6903 2.3999 60.1045 5.46659C62.5187 8.53329 61.4141 13.107 59.2049 22.2544L57.3113 30.0951C55.8849 36.0014 55.1717 38.9546 52.9835 40.6772C50.7953 42.3999 47.7572 42.3999 41.6811 42.3999H18.6889C10.0002 42.3999 5.65575 42.3999 3.24994 39.6037C0.844136 36.8075 1.49255 32.5118 2.78937 23.9203L6.03774 2.3999Z" stroke="currentColor" stroke-width="1.8"/>
          <path class="line" fill-rule="evenodd" clip-rule="evenodd" d="M39.7456 10.6449L38.633 24.2026C37.8012 31.603 31.4846 37.0577 24.1654 36.4571C16.7802 35.8511 11.2878 29.336 11.8976 21.9051L13.0017 8.45028L19.6877 8.99893L18.5835 22.4537C18.2787 26.1692 21.0248 29.4267 24.7175 29.7297C28.3456 30.0275 31.5126 27.3074 31.9599 23.4972L33.0596 10.0962L39.7456 10.6449Z" stroke="currentColor" stroke-width="2" stroke-linecap="round" stroke-linejoin="round"/>
          <path class="line" d="M39.6041 14.0487C41.327 12.9001 45.9885 11.9583 48.2183 14.6228C48.5519 15.1334 49.0843 15.7245 49.3668 15.7716C52.8124 16.346 53.961 12.3263 52.8124 11.1774C51.6639 10.0285 51.6639 10.0288 51.6639 10.0288C46.8394 4.86026 38.4556 6.5832 33.0705 9.48908" stroke="currentColor" stroke-width="2" stroke-linecap="round" stroke-linejoin="round"/>
          <path class="line" fill-rule="evenodd" clip-rule="evenodd" d="M45.857 20.6169C46.5115 20.6166 47.1519 20.8076 47.6993 21.1665C48.2467 21.5254 48.6772 22.0364 48.938 22.6367C49.1987 23.2371 49.2783 23.9006 49.1669 24.5455C49.0555 25.1905 48.758 25.7889 48.311 26.267C47.864 26.7451 47.287 27.0821 46.6509 27.2366C46.0149 27.3911 45.3476 27.3562 44.7311 27.1364C44.1146 26.9166 43.5758 26.5214 43.1809 25.9993C42.7861 25.4773 42.5525 24.8512 42.5089 24.1981V23.7502C42.6206 22.0045 44.0753 20.6169 45.857 20.6169Z" stroke="currentColor" stroke-width="2" stroke-linecap="round" stroke-linejoin="round"/>
          <path class="line" d="M33.1111 9.97146L30.7795 36.8487L37.4614 37.4283L39.795 10.5294L33.113 9.94971" stroke="currentColor" stroke-width="2" stroke-linecap="round" stroke-linejoin="round"/>
          <path d="M176.903 12.3336C177.048 11.7284 177.59 11.3015 178.212 11.3015H243.352C244.203 11.3015 244.841 12.0821 244.67 12.9163L240.673 32.4989C240.545 33.1254 239.994 33.5754 239.355 33.5754H173.52C172.65 33.5754 172.009 32.7623 172.212 31.9163L176.903 12.3336Z" fill="white"/>
          <path d="M178.999 18.8369L179.126 18.4127H186.657L186.53 18.8369H178.999ZM187.336 13.2579C187.138 13.2579 186.954 13.2861 186.784 13.3427C186.615 13.3851 186.452 13.47 186.297 13.5973C186.169 13.7104 186.042 13.8589 185.915 14.0428C185.802 14.2266 185.688 14.4529 185.575 14.7216C185.476 14.9903 185.377 15.3155 185.278 15.6974L180.611 33.1135C179.848 33.1276 179.162 33.1559 178.554 33.1983C177.96 33.2407 177.366 33.3115 176.772 33.4105L180.717 18.7309C181.043 17.4864 181.425 16.4611 181.863 15.655C182.316 14.8347 182.846 14.2054 183.454 13.767C183.907 13.4417 184.394 13.2084 184.918 13.0669C185.455 12.9114 186.035 12.8336 186.657 12.8336C187.704 12.8336 188.517 13.0457 189.097 13.47C189.691 13.8943 189.988 14.4741 189.988 15.2095C189.988 15.5348 189.889 15.8671 189.691 16.2065C189.507 16.5318 189.245 16.8005 188.906 17.0126C188.566 17.2247 188.163 17.3308 187.697 17.3308C187.173 17.3308 186.756 17.2106 186.445 16.9702C186.148 16.7156 186 16.355 186 15.8883C186 15.3509 186.162 14.8559 186.487 14.4034C186.827 13.9508 187.294 13.6114 187.888 13.3851C187.789 13.3427 187.697 13.3144 187.612 13.3003C187.527 13.272 187.435 13.2579 187.336 13.2579ZM192.946 18.54C192.706 18.54 192.423 18.745 192.098 19.1551C191.772 19.5511 191.44 20.0885 191.101 20.7674C190.761 21.4462 190.443 22.2028 190.146 23.0372C189.863 23.8716 189.63 24.7272 189.446 25.604C189.276 26.4808 189.192 27.3152 189.192 28.1071C189.192 28.5455 189.22 28.8567 189.276 29.0405C189.347 29.2102 189.453 29.2951 189.595 29.2951C189.821 29.2951 190.09 29.1042 190.401 28.7223C190.726 28.3405 191.051 27.8243 191.376 27.1738C191.716 26.5232 192.027 25.7878 192.31 24.9676C192.607 24.1473 192.847 23.2917 193.031 22.4008C193.215 21.4957 193.307 20.6189 193.307 19.7703C193.307 19.2329 193.272 18.8935 193.201 18.7521C193.13 18.6107 193.045 18.54 192.946 18.54ZM185.67 26.1131C185.67 25.4484 185.762 24.7484 185.946 24.013C186.13 23.2776 186.413 22.5634 186.794 21.8704C187.176 21.1633 187.657 20.5269 188.237 19.9613C188.831 19.3956 189.524 18.9501 190.316 18.6248C191.122 18.2854 192.034 18.1157 193.052 18.1157C194.283 18.1157 195.216 18.4268 195.852 19.0491C196.503 19.6713 196.828 20.5623 196.828 21.722C196.828 22.3866 196.736 23.0867 196.553 23.8221C196.369 24.5575 196.086 25.2787 195.704 25.9858C195.322 26.6788 194.834 27.3081 194.24 27.8738C193.66 28.4395 192.967 28.892 192.161 29.2314C191.369 29.5567 190.464 29.7193 189.446 29.7193C188.216 29.7193 187.275 29.4082 186.625 28.786C185.988 28.1637 185.67 27.2728 185.67 26.1131ZM201.169 29.4224H197.415L200.003 20.2158C200.088 19.8905 200.116 19.6643 200.088 19.537C200.059 19.3956 199.967 19.3249 199.812 19.3249C199.6 19.3249 199.402 19.4238 199.218 19.6218C199.034 19.8057 198.843 20.1522 198.645 20.6613L198.157 21.9553H197.754L198.348 20.3007C198.546 19.7633 198.794 19.339 199.09 19.0279C199.402 18.7026 199.762 18.4693 200.172 18.3278C200.582 18.1864 201.028 18.1157 201.509 18.1157C201.99 18.1157 202.371 18.2076 202.654 18.3915C202.937 18.5612 203.142 18.7945 203.27 19.0915C203.397 19.3885 203.46 19.7138 203.46 20.0673C203.475 20.4067 203.439 20.7461 203.354 21.0856L201.169 29.4224ZM206.579 18.54C206.31 18.54 206.02 18.5824 205.709 18.6672C205.412 18.7521 205.094 18.9713 204.754 19.3249C204.429 19.6643 204.076 20.2158 203.694 20.9795C203.326 21.7432 202.93 22.8038 202.506 24.1615C202.082 25.5191 201.636 27.2515 201.169 29.3587L201.615 26.3889C202.039 24.7342 202.428 23.3766 202.782 22.3159C203.135 21.2411 203.489 20.3997 203.842 19.7915C204.196 19.1693 204.585 18.738 205.009 18.4975C205.433 18.243 205.928 18.1157 206.494 18.1157C207.159 18.1157 207.668 18.3137 208.021 18.7097C208.375 19.1057 208.552 19.5936 208.552 20.1734C208.552 20.6401 208.446 21.0785 208.233 21.4886C208.035 21.8846 207.753 22.2099 207.385 22.4644C207.031 22.7048 206.621 22.825 206.155 22.825C205.631 22.825 205.235 22.6907 204.967 22.422C204.698 22.1533 204.564 21.7573 204.564 21.234C204.564 20.8098 204.67 20.4138 204.882 20.0461C205.094 19.6784 205.377 19.3673 205.73 19.1127C206.084 18.844 206.466 18.6743 206.876 18.6036C206.833 18.5895 206.784 18.5753 206.727 18.5612C206.685 18.547 206.635 18.54 206.579 18.54ZM216.231 21.9129C215.68 23.5675 215.164 24.911 214.683 25.9434C214.202 26.9616 213.728 27.7465 213.261 28.2981C212.809 28.8355 212.335 29.2102 211.84 29.4224C211.359 29.6204 210.836 29.7193 210.27 29.7193C209.705 29.7193 209.252 29.5991 208.913 29.3587C208.573 29.1183 208.368 28.7648 208.298 28.2981C208.241 27.8172 208.326 27.2233 208.552 26.5161L210.61 20.2158C210.751 19.8057 210.765 19.5582 210.652 19.4733C210.553 19.3744 210.454 19.3249 210.355 19.3249C210.228 19.3249 210.065 19.4026 209.867 19.5582C209.669 19.6996 209.457 20.0673 209.231 20.6613L208.785 21.8492H208.382L208.913 20.3007C209.125 19.7067 209.394 19.2541 209.719 18.943C210.058 18.6319 210.419 18.4198 210.801 18.3066C211.197 18.1793 211.579 18.1157 211.946 18.1157C212.583 18.1157 213.092 18.25 213.474 18.5188C213.855 18.7733 214.089 19.1693 214.174 19.7067C214.258 20.2441 214.159 20.93 213.877 21.7644L212.052 27.2586C211.798 28.0223 211.812 28.4041 212.095 28.4041C212.321 28.4041 212.59 28.2132 212.901 27.8314C213.212 27.4495 213.544 26.9263 213.898 26.2616C214.251 25.5969 214.605 24.8403 214.959 23.9918C215.312 23.1291 215.651 22.2311 215.977 21.2977C216.302 20.3502 216.585 19.4097 216.825 18.4763L216.231 21.9129ZM217.992 27.6192C217.893 27.9445 217.851 28.1779 217.865 28.3193C217.893 28.4466 217.999 28.5102 218.183 28.5102C218.395 28.5102 218.593 28.4183 218.777 28.2344C218.975 28.0364 219.166 27.6829 219.35 27.1738L219.838 25.8797H220.241L219.647 27.5344C219.463 28.0576 219.208 28.4819 218.883 28.8072C218.572 29.1324 218.218 29.3658 217.822 29.5072C217.44 29.6486 217.037 29.7193 216.613 29.7193C216.118 29.7193 215.715 29.6416 215.404 29.486C215.107 29.3446 214.881 29.1466 214.725 28.892C214.555 28.6092 214.471 28.2839 214.471 27.9162C214.485 27.5344 214.541 27.1455 214.64 26.7495L216.825 18.4127C217.561 18.3985 218.247 18.3703 218.883 18.3278C219.519 18.2854 220.113 18.2147 220.665 18.1157L217.992 27.6192ZM224.848 29.4224H221.093L223.681 20.2158C223.752 19.9895 223.78 19.8128 223.766 19.6855C223.766 19.5582 223.738 19.4663 223.681 19.4097C223.639 19.3531 223.561 19.3249 223.448 19.3249C223.25 19.3249 223.059 19.4309 222.875 19.6431C222.691 19.841 222.507 20.1805 222.323 20.6613L221.836 21.9553H221.433L222.026 20.3007C222.224 19.7633 222.479 19.339 222.79 19.0279C223.101 18.7026 223.455 18.4693 223.851 18.3278C224.247 18.1864 224.657 18.1157 225.081 18.1157C225.604 18.1157 226.015 18.2006 226.312 18.3703C226.609 18.54 226.821 18.7733 226.948 19.0703C227.089 19.3531 227.153 19.6713 227.139 20.0249C227.139 20.3784 227.096 20.732 227.012 21.0856L224.848 29.4224ZM229.387 20.5764C229.444 20.3784 229.486 20.2087 229.515 20.0673C229.557 19.9259 229.564 19.8198 229.536 19.7491C229.522 19.6784 229.458 19.6431 229.345 19.6431C229.076 19.6431 228.794 19.8057 228.497 20.131C228.2 20.4562 227.888 20.9229 227.563 21.531C227.238 22.125 226.906 22.8463 226.566 23.6948C226.241 24.5433 225.909 25.4979 225.569 26.5586L225.293 26.3889C225.859 24.3948 226.418 22.7897 226.969 21.5735C227.535 20.3572 228.164 19.4804 228.857 18.943C229.564 18.3915 230.392 18.1157 231.339 18.1157C231.806 18.1157 232.174 18.1935 232.442 18.349C232.725 18.4905 232.923 18.7026 233.036 18.9854C233.163 19.2541 233.213 19.5865 233.185 19.9825C233.171 20.3784 233.093 20.8239 232.951 21.3189L230.618 29.4224H226.842L229.387 20.5764ZM235.285 20.5764C235.398 20.2512 235.447 20.0178 235.433 19.8764C235.433 19.7208 235.377 19.6431 235.264 19.6431C235.08 19.6431 234.853 19.7562 234.585 19.9825C234.33 20.1946 234.033 20.5623 233.694 21.0856C233.369 21.5947 233.015 22.2947 232.633 23.1857C232.265 24.0766 231.869 25.1939 231.445 26.5374L231.212 26.4313C231.679 24.7201 232.138 23.3271 232.591 22.2523C233.057 21.1633 233.531 20.3219 234.012 19.7279C234.507 19.1198 235.016 18.7026 235.539 18.4763C236.077 18.2359 236.635 18.1157 237.215 18.1157C237.837 18.1157 238.304 18.25 238.615 18.5188C238.926 18.7733 239.096 19.141 239.124 19.6218C239.153 20.0885 239.054 20.6542 238.827 21.3189L236.727 27.6192C236.586 28.0152 236.565 28.2627 236.664 28.3617C236.777 28.4607 236.883 28.5102 236.982 28.5102C237.109 28.5102 237.272 28.4395 237.47 28.2981C237.668 28.1425 237.88 27.7677 238.106 27.1738L238.552 25.9858H238.955L238.424 27.5344C238.226 28.1284 237.958 28.5809 237.618 28.892C237.293 29.2032 236.932 29.4153 236.536 29.5284C236.155 29.6557 235.773 29.7193 235.391 29.7193C234.924 29.7193 234.521 29.6416 234.182 29.486C233.856 29.3446 233.602 29.1254 233.418 28.8284C233.234 28.5314 233.142 28.1566 233.142 27.7041C233.142 27.2374 233.248 26.6929 233.46 26.0707L235.285 20.5764Z" fill="#155FFC"/>
          <path d="M79.4581 19.7572C79.7891 18.5254 79.9821 17.5878 80.0373 16.9443C80.1108 16.2824 79.9821 15.8044 79.6512 15.5103C79.3386 15.2161 78.7595 15.0139 77.9138 14.9036L78.0793 14.352C78.447 14.3704 78.9158 14.3888 79.4857 14.4072C80.074 14.4256 80.6256 14.4348 81.1404 14.4348C81.5632 14.4348 81.9769 14.4256 82.3813 14.4072C82.8042 14.3888 83.1627 14.3704 83.4568 14.352L83.2914 14.9036C82.7031 15.0139 82.2343 15.2069 81.8849 15.4827C81.5356 15.7585 81.2323 16.1905 80.9749 16.7788C80.7359 17.3488 80.4785 18.1577 80.2027 19.2056L78.4929 25.8517C77.8311 28.3888 76.9302 30.3376 75.7904 31.6981C75.1285 32.4703 74.3012 33.0954 73.3084 33.5734C72.334 34.033 71.2769 34.2628 70.137 34.2628C68.464 34.2628 67.1311 34.0146 66.1383 33.5182C65.1456 33.0218 64.4377 32.3967 64.0149 31.643C63.6472 30.9443 63.4542 30.1446 63.4358 29.2437C63.4358 28.3245 63.6104 27.2214 63.9597 25.9345L66.2487 17.2752C66.4325 16.595 66.506 16.0986 66.4693 15.786C66.4325 15.4551 66.267 15.2345 65.9729 15.1242C65.6971 14.9955 65.2467 14.922 64.6216 14.9036L64.7871 14.352C65.3202 14.3704 66.0556 14.3888 66.9932 14.4072C67.9493 14.4256 68.9512 14.4348 69.9992 14.4348C70.9184 14.4348 71.7917 14.4256 72.619 14.4072C73.4463 14.3888 74.1817 14.3704 74.8252 14.352L74.6597 14.9036C74.0346 14.922 73.5474 14.9955 73.1981 15.1242C72.8488 15.2345 72.573 15.4551 72.3708 15.786C72.187 16.0986 72.0031 16.595 71.8193 17.2752L69.3925 26.4033C69.0615 27.6718 68.8501 28.7473 68.7582 29.6298C68.6663 30.4939 68.6846 31.2017 68.8133 31.7533C68.9604 32.2864 69.1902 32.6817 69.5028 32.9391C69.8153 33.1781 70.2014 33.2976 70.661 33.2976C72.0399 33.2976 73.1889 32.9942 74.1082 32.3875C75.0274 31.7625 75.7812 30.9076 76.3695 29.8229C76.9578 28.7382 77.4266 27.5156 77.7759 26.1551L79.4581 19.7572ZM85.8326 33.8767H80.9514L84.3158 21.9082C84.4078 21.614 84.4629 21.3842 84.4813 21.2188C84.4997 21.0533 84.4721 20.9338 84.3986 20.8603C84.3434 20.7867 84.2331 20.7499 84.0676 20.7499C83.7919 20.7499 83.5345 20.8786 83.2955 21.136C83.0565 21.375 82.8083 21.8255 82.5509 22.4873L81.9166 24.1695H81.3926L82.1648 22.0185C82.5141 21.0441 82.9921 20.3271 83.5988 19.8675C84.2055 19.4079 84.9869 19.178 85.9429 19.178C86.6599 19.178 87.2298 19.2975 87.6527 19.5365C88.0755 19.7572 88.3789 20.0605 88.5627 20.4466C88.7466 20.8327 88.8385 21.2555 88.8385 21.7152C88.8385 22.1564 88.7833 22.5976 88.673 23.0389L85.8326 33.8767ZM86.4669 29.9332C87.2206 27.6902 87.9101 25.8701 88.5351 24.4729C89.1786 23.0572 89.7945 21.9633 90.3828 21.1912C90.9895 20.419 91.6054 19.8951 92.2305 19.6193C92.874 19.3251 93.5634 19.178 94.2988 19.178C95.218 19.178 95.8891 19.3619 96.3119 19.7296C96.7348 20.0973 96.9554 20.6029 96.9738 21.2463C97.0106 21.8714 96.9002 22.57 96.6429 23.3422L93.9127 31.5326C93.7289 32.0474 93.7013 32.3692 93.83 32.4978C93.9771 32.6265 94.1149 32.6909 94.2436 32.6909C94.4091 32.6909 94.6205 32.599 94.8779 32.4151C95.1353 32.2129 95.4111 31.7257 95.7052 30.9535L96.2844 29.4092H96.8083L96.1189 31.4223C95.8615 32.1945 95.5122 32.7828 95.071 33.1873C94.6481 33.5917 94.1793 33.8675 93.6645 34.0146C93.1681 34.1801 92.6717 34.2628 92.1753 34.2628C91.6054 34.2628 91.109 34.1801 90.6862 34.0146C90.2633 33.8491 89.9324 33.6009 89.6934 33.27C89.4176 32.8839 89.2613 32.4059 89.2246 31.836C89.2062 31.2477 89.3533 30.4755 89.6658 29.5195L92.0375 22.377C92.1478 22.0461 92.2121 21.7703 92.2305 21.5497C92.2673 21.3291 92.2673 21.1636 92.2305 21.0533C92.1937 20.943 92.111 20.8878 91.9823 20.8878C91.6881 20.8878 91.3388 21.136 90.9344 21.6324C90.5299 22.1288 90.0979 22.809 89.6382 23.6731C89.197 24.5372 88.7466 25.53 88.287 26.6515C87.8273 27.7546 87.3861 28.922 86.9632 30.1538C86.5404 31.3672 86.1727 32.5806 85.8602 33.794L86.4669 29.9332ZM103.569 32.3875C103.752 32.3875 103.946 32.314 104.148 32.1669C104.35 32.0198 104.561 31.7716 104.782 31.4223C105.003 31.0546 105.242 30.5491 105.499 29.9056C105.756 29.2621 106.032 28.4348 106.326 27.4236L105.609 30.4296C105.315 31.404 104.938 32.1761 104.479 32.746C104.037 33.2976 103.532 33.6837 102.962 33.9043C102.41 34.1433 101.813 34.2628 101.169 34.2628C100.011 34.2628 99.1471 33.9686 98.5771 33.3803C98.0256 32.7736 97.7498 31.9187 97.7498 30.8156C97.7498 29.7493 97.9245 28.6646 98.2738 27.5615C98.6415 26.4584 99.1287 25.4105 99.7354 24.4177C100.36 23.4066 101.05 22.5149 101.804 21.7427C102.576 20.9522 103.376 20.3271 104.203 19.8675C105.03 19.4079 105.83 19.178 106.602 19.178C107.19 19.178 107.641 19.3619 107.953 19.7296C108.284 20.0973 108.404 20.7499 108.312 21.6876L108.009 21.853C108.1 21.3934 108.1 21.0625 108.009 20.8603C107.917 20.6396 107.76 20.5293 107.54 20.5293C107.227 20.5293 106.869 20.7316 106.464 21.136C106.078 21.5221 105.674 22.0645 105.251 22.7631C104.846 23.4433 104.46 24.2339 104.093 25.1347C103.743 26.0172 103.458 26.9548 103.238 27.9476C103.035 28.9404 102.934 29.9332 102.934 30.9259C102.934 31.4407 102.98 31.8176 103.072 32.0566C103.164 32.2772 103.33 32.3875 103.569 32.3875ZM108.67 19.5917C109.682 19.5733 110.573 19.5365 111.345 19.4814C112.136 19.4079 112.908 19.3067 113.662 19.178L109.939 31.5326C109.847 31.8268 109.801 32.0658 109.801 32.2497C109.819 32.4151 109.865 32.5346 109.939 32.6082C110.031 32.6633 110.141 32.6909 110.27 32.6909C110.435 32.6909 110.647 32.599 110.904 32.4151C111.162 32.2129 111.437 31.7257 111.731 30.9535L112.311 29.4092H112.835L112.145 31.4223C111.888 32.1945 111.538 32.7828 111.097 33.1873C110.674 33.5917 110.206 33.8675 109.691 34.0146C109.194 34.1801 108.698 34.2628 108.202 34.2628C107.08 34.2628 106.28 33.9411 105.802 33.2976C105.527 32.9115 105.37 32.4059 105.334 31.7808C105.315 31.1558 105.435 30.402 105.692 29.5195L108.67 19.5917ZM118.958 33.8767H114.076L117.441 21.9082C117.533 21.614 117.57 21.3842 117.551 21.2188C117.551 21.0533 117.514 20.9338 117.441 20.8603C117.386 20.7867 117.285 20.7499 117.137 20.7499C116.88 20.7499 116.632 20.8878 116.393 21.1636C116.154 21.421 115.915 21.8622 115.676 22.4873L115.042 24.1695H114.518L115.29 22.0185C115.547 21.3199 115.878 20.7683 116.283 20.3639C116.687 19.941 117.147 19.6377 117.661 19.4538C118.176 19.27 118.709 19.178 119.261 19.178C119.941 19.178 120.474 19.2884 120.86 19.509C121.246 19.7296 121.522 20.0329 121.688 20.419C121.872 20.7867 121.954 21.2004 121.936 21.66C121.936 22.1196 121.881 22.5792 121.77 23.0389L118.958 33.8767ZM124.859 22.377C124.933 22.1196 124.988 21.899 125.025 21.7152C125.08 21.5313 125.089 21.3934 125.052 21.3015C125.034 21.2096 124.951 21.1636 124.804 21.1636C124.455 21.1636 124.087 21.375 123.701 21.7979C123.315 22.2207 122.91 22.8274 122.487 23.618C122.065 24.3901 121.633 25.3278 121.191 26.4309C120.768 27.5339 120.336 28.7749 119.895 30.1538L119.537 29.9332C120.272 27.3409 120.998 25.2542 121.715 23.6731C122.451 22.092 123.269 20.9522 124.17 20.2536C125.089 19.5365 126.164 19.178 127.396 19.178C128.003 19.178 128.481 19.2792 128.83 19.4814C129.198 19.6652 129.455 19.941 129.602 20.3087C129.768 20.658 129.832 21.0901 129.795 21.6048C129.777 22.1196 129.676 22.6987 129.492 23.3422L126.459 33.8767H121.55L124.859 22.377ZM132.526 22.377C132.673 21.9542 132.737 21.6508 132.719 21.467C132.719 21.2647 132.645 21.1636 132.498 21.1636C132.259 21.1636 131.965 21.3107 131.616 21.6048C131.285 21.8806 130.899 22.3586 130.457 23.0389C130.034 23.7007 129.575 24.6108 129.078 25.769C128.6 26.9272 128.086 28.3796 127.534 30.1262L127.231 29.9883C127.837 27.7638 128.435 25.9529 129.023 24.5556C129.63 23.14 130.246 22.0461 130.871 21.2739C131.514 20.4834 132.176 19.941 132.856 19.6469C133.555 19.3343 134.281 19.178 135.035 19.178C135.844 19.178 136.451 19.3527 136.855 19.702C137.26 20.0329 137.48 20.5109 137.517 21.136C137.554 21.7427 137.425 22.4781 137.131 23.3422L134.401 31.5326C134.217 32.0474 134.189 32.3692 134.318 32.4978C134.465 32.6265 134.603 32.6909 134.732 32.6909C134.897 32.6909 135.109 32.599 135.366 32.4151C135.623 32.2129 135.899 31.7257 136.193 30.9535L136.772 29.4092H137.296L136.607 31.4223C136.35 32.1945 136 32.7828 135.559 33.1873C135.136 33.5917 134.667 33.8675 134.153 34.0146C133.656 34.1801 133.16 34.2628 132.663 34.2628C132.057 34.2628 131.533 34.1617 131.092 33.9594C130.669 33.7756 130.338 33.4906 130.099 33.1045C129.86 32.7185 129.74 32.2313 129.74 31.643C129.74 31.0363 129.878 30.3284 130.154 29.5195L132.526 22.377ZM147.878 21.0257C147.584 21.0257 147.272 21.1912 146.941 21.5221C146.628 21.853 146.316 22.3127 146.003 22.901C145.691 23.4893 145.396 24.1603 145.121 24.9141C144.845 25.6679 144.606 26.4676 144.404 27.3133L144.928 24.6108C145.424 23.3422 145.911 22.3127 146.389 21.5221C146.886 20.7132 147.419 20.1249 147.989 19.7572C148.559 19.3711 149.193 19.178 149.891 19.178C151.178 19.178 152.125 19.5733 152.732 20.3639C153.357 21.136 153.67 22.2391 153.67 23.6731C153.67 24.5372 153.541 25.4565 153.283 26.4309C153.026 27.3869 152.649 28.3337 152.153 29.2713C151.656 30.1906 151.05 31.0271 150.333 31.7808C149.616 32.5346 148.788 33.1413 147.851 33.6009C146.932 34.0422 145.902 34.2628 144.762 34.2628C144.247 34.2628 143.779 34.1893 143.356 34.0422C142.951 33.8951 142.629 33.7204 142.39 33.5182L142.583 33.1597C142.731 33.2149 142.878 33.2608 143.025 33.2976C143.172 33.3344 143.337 33.3527 143.521 33.3527C144.018 33.3527 144.505 33.1321 144.983 32.6909C145.479 32.2313 145.939 31.6246 146.362 30.8708C146.784 30.0986 147.161 29.2437 147.492 28.3061C147.823 27.3685 148.081 26.4125 148.264 25.4381C148.448 24.4453 148.54 23.4985 148.54 22.5976C148.54 21.9542 148.485 21.5313 148.375 21.3291C148.264 21.1268 148.099 21.0257 147.878 21.0257ZM142.666 33.6837C141.949 33.4814 141.168 33.4722 140.322 33.6561C139.495 33.8216 138.713 34.0422 137.978 34.3179L137.564 34.1249C137.693 33.8675 137.813 33.6101 137.923 33.3527C138.015 33.077 138.098 32.792 138.171 32.4978L143.245 15.4827C143.429 14.8576 143.411 14.398 143.19 14.1038C142.97 13.8097 142.409 13.6626 141.508 13.6626L141.701 13.0835C143.209 13.0651 144.541 12.964 145.7 12.7801C146.876 12.5779 148.007 12.3021 149.092 11.9528L142.666 33.6837ZM159.935 32.3875C160.119 32.3875 160.312 32.314 160.514 32.1669C160.716 32.0198 160.928 31.7716 161.148 31.4223C161.369 31.0546 161.608 30.5491 161.865 29.9056C162.123 29.2621 162.399 28.4348 162.693 27.4236L161.976 30.4296C161.682 31.404 161.305 32.1761 160.845 32.746C160.404 33.2976 159.898 33.6837 159.328 33.9043C158.777 34.1433 158.179 34.2628 157.536 34.2628C156.377 34.2628 155.513 33.9686 154.943 33.3803C154.392 32.7736 154.116 31.9187 154.116 30.8156C154.116 29.7493 154.291 28.6646 154.64 27.5615C155.008 26.4584 155.495 25.4105 156.102 24.4177C156.727 23.4066 157.416 22.5149 158.17 21.7427C158.942 20.9522 159.742 20.3271 160.569 19.8675C161.397 19.4079 162.196 19.178 162.968 19.178C163.557 19.178 164.007 19.3619 164.32 19.7296C164.651 20.0973 164.77 20.7499 164.678 21.6876L164.375 21.853C164.467 21.3934 164.467 21.0625 164.375 20.8603C164.283 20.6396 164.127 20.5293 163.906 20.5293C163.594 20.5293 163.235 20.7316 162.831 21.136C162.444 21.5221 162.04 22.0645 161.617 22.7631C161.213 23.4433 160.827 24.2339 160.459 25.1347C160.11 26.0172 159.825 26.9548 159.604 27.9476C159.402 28.9404 159.301 29.9332 159.301 30.9259C159.301 31.4407 159.347 31.8176 159.439 32.0566C159.53 32.2772 159.696 32.3875 159.935 32.3875ZM165.037 19.5917C166.048 19.5733 166.94 19.5365 167.712 19.4814C168.502 19.4079 169.274 19.3067 170.028 19.178L166.305 31.5326C166.213 31.8268 166.167 32.0658 166.167 32.2497C166.186 32.4151 166.232 32.5346 166.305 32.6082C166.397 32.6633 166.508 32.6909 166.636 32.6909C166.802 32.6909 167.013 32.599 167.271 32.4151C167.528 32.2129 167.804 31.7257 168.098 30.9535L168.677 29.4092H169.201L168.511 31.4223C168.254 32.1945 167.905 32.7828 167.464 33.1873C167.041 33.5917 166.572 33.8675 166.057 34.0146C165.561 34.1801 165.064 34.2628 164.568 34.2628C163.446 34.2628 162.647 33.9411 162.169 33.2976C161.893 32.9115 161.737 32.4059 161.7 31.7808C161.682 31.1558 161.801 30.402 162.058 29.5195L165.037 19.5917Z" fill="currentColor"/>
          </svg>