<svg width="1350" height="630" viewBox="0 0 1350 630" fill="none" xmlns="http://www.w3.org/2000/svg">
<g opacity="0.5">
<g style="mix-blend-mode:overlay" opacity="0.5">
<path d="M-22.5875 -80.5542H-57.5203V-42.3988M-22.5875 -80.5542V-42.3988M-22.5875 -80.5542H12.3452M-22.5875 -42.3988H-57.5203M-22.5875 -42.3988V-4.24345M-22.5875 -42.3988H12.3452M-57.5203 -42.3988V-4.24345M-22.5875 -4.24345H-57.5203M-22.5875 -4.24345V33.9119M-22.5875 -4.24345H12.3452M-57.5203 -4.24345V33.9119M-22.5875 33.9119H-57.5203M-22.5875 33.9119V72.0673M-22.5875 33.9119H12.3452M-57.5203 33.9119V72.0673M-22.5875 72.0673H-57.5203M-22.5875 72.0673V110.223M-22.5875 72.0673H12.3452M-57.5203 72.0673V110.223M-22.5875 110.223H-57.5203M-22.5875 110.223V148.378M-22.5875 110.223H12.3452M-57.5203 110.223V148.378M-22.5875 148.378H-57.5203M-22.5875 148.378V186.533M-22.5875 148.378H12.3452M-57.5203 148.378V186.533M-22.5875 186.533H-57.5203M-22.5875 186.533V224.689M-22.5875 186.533H12.3452M-57.5203 186.533V224.689M-22.5875 224.689H-57.5203M-22.5875 224.689V262.844M-22.5875 224.689H12.3452M-57.5203 224.689V262.844M-22.5875 262.844H-57.5203M-22.5875 262.844V301M-22.5875 262.844H12.3452M-57.5203 262.844V301M-22.5875 301H-57.5203M-22.5875 301V339.155M-22.5875 301H12.3452M-57.5203 301V339.155M-22.5875 339.155H-57.5203M-22.5875 339.155V377.31M-22.5875 339.155H12.3452M-57.5203 339.155V377.31M-22.5875 377.31H-57.5203M-22.5875 377.31V415.466M-22.5875 377.31H12.3452M-57.5203 377.31V415.466M-22.5875 415.466H-57.5203M-22.5875 415.466V453.621M-22.5875 415.466H12.3452M-57.5203 415.466V453.621M-22.5875 453.621H-57.5203M-22.5875 453.621V491.776M-22.5875 453.621H12.3452M-57.5203 453.621V491.776M-22.5875 491.776H-57.5203M-22.5875 491.776V529.932M-22.5875 491.776H12.3452M-57.5203 491.776V529.932M-22.5875 529.932H-57.5203M-22.5875 529.932V568.087M-22.5875 529.932H12.3452M-57.5203 529.932V568.087M-22.5875 568.087H-57.5203M-22.5875 568.087V606.243M-22.5875 568.087H12.3452M-57.5203 568.087V606.243M-22.5875 606.243H-57.5203M-22.5875 606.243V644.398M-22.5875 606.243H12.3452M-57.5203 606.243V644.398M-22.5875 644.398H-57.5203M-22.5875 644.398V682.553M-22.5875 644.398H12.3452M-57.5203 644.398V682.553H-22.5875M-22.5875 682.553H12.3452M12.3452 -80.5542V-42.3988M12.3452 -80.5542H47.2779M12.3452 -42.3988V-4.24345M12.3452 -42.3988H47.2779M12.3452 -4.24345V33.9119M12.3452 -4.24345H47.2779M12.3452 33.9119V72.0673M12.3452 33.9119H47.2779M12.3452 72.0673V110.223M12.3452 72.0673H47.2779M12.3452 110.223V148.378M12.3452 110.223H47.2779M12.3452 148.378V186.533M12.3452 148.378H47.2779M12.3452 186.533V224.689M12.3452 186.533H47.2779M12.3452 224.689V262.844M12.3452 224.689H47.2779M12.3452 262.844V301M12.3452 262.844H47.2779M12.3452 301V339.155M12.3452 301H47.2779M12.3452 339.155V377.31M12.3452 339.155H47.2779M12.3452 377.31V415.466M12.3452 377.31H47.2779M12.3452 415.466V453.621M12.3452 415.466H47.2779M12.3452 453.621V491.776M12.3452 453.621H47.2779M12.3452 491.776V529.932M12.3452 491.776H47.2779M12.3452 529.932V568.087M12.3452 529.932H47.2779M12.3452 568.087V606.243M12.3452 568.087H47.2779M12.3452 606.243V644.398M12.3452 606.243H47.2779M12.3452 644.398V682.553M12.3452 644.398H47.2779M12.3452 682.553H47.2779M47.2779 -80.5542V-42.3988M47.2779 -80.5542H82.2106M47.2779 -42.3988V-4.24345M47.2779 -42.3988H82.2106M47.2779 -4.24345V33.9119M47.2779 -4.24345H82.2106M47.2779 33.9119V72.0673M47.2779 33.9119H82.2106M47.2779 72.0673V110.223M47.2779 72.0673H82.2106M47.2779 110.223V148.378M47.2779 110.223H82.2106M47.2779 148.378V186.533M47.2779 148.378H82.2106M47.2779 186.533V224.689M47.2779 186.533H82.2106M47.2779 224.689V262.844M47.2779 224.689H82.2106M47.2779 262.844V301M47.2779 262.844H82.2106M47.2779 301V339.155M47.2779 301H82.2106M47.2779 339.155V377.31M47.2779 339.155H82.2106M47.2779 377.31V415.466M47.2779 377.31H82.2106M47.2779 415.466V453.621M47.2779 415.466H82.2106M47.2779 453.621V491.776M47.2779 453.621H82.2106M47.2779 491.776V529.932M47.2779 491.776H82.2106M47.2779 529.932V568.087M47.2779 529.932H82.2106M47.2779 568.087V606.243M47.2779 568.087H82.2106M47.2779 606.243V644.398M47.2779 606.243H82.2106M47.2779 644.398V682.553M47.2779 644.398H82.2106M47.2779 682.553H82.2106M82.2106 -80.5542V-42.3988M82.2106 -80.5542H117.143M82.2106 -42.3988V-4.24345M82.2106 -42.3988H117.143M82.2106 -4.24345V33.9119M82.2106 -4.24345H117.143M82.2106 33.9119V72.0673M82.2106 33.9119H117.143M82.2106 72.0673V110.223M82.2106 72.0673H117.143M82.2106 110.223V148.378M82.2106 110.223H117.143M82.2106 148.378V186.533M82.2106 148.378H117.143M82.2106 186.533V224.689M82.2106 186.533H117.143M82.2106 224.689V262.844M82.2106 224.689H117.143M82.2106 262.844V301M82.2106 262.844H117.143M82.2106 301V339.155M82.2106 301H117.143M82.2106 339.155V377.31M82.2106 339.155H117.143M82.2106 377.31V415.466M82.2106 377.31H117.143M82.2106 415.466V453.621M82.2106 415.466H117.143M82.2106 453.621V491.776M82.2106 453.621H117.143M82.2106 491.776V529.932M82.2106 491.776H117.143M82.2106 529.932V568.087M82.2106 529.932H117.143M82.2106 568.087V606.243M82.2106 568.087H117.143M82.2106 606.243V644.398M82.2106 606.243H117.143M82.2106 644.398V682.553M82.2106 644.398H117.143M82.2106 682.553H117.143M117.143 -80.5542V-42.3988M117.143 -80.5542H152.076M117.143 -42.3988V-4.24345M117.143 -42.3988H152.076M117.143 -4.24345V33.9119M117.143 -4.24345H152.076M117.143 33.9119V72.0673M117.143 33.9119H152.076M117.143 72.0673V110.223M117.143 72.0673H152.076M117.143 110.223V148.378M117.143 110.223H152.076M117.143 148.378V186.533M117.143 148.378H152.076M117.143 186.533V224.689M117.143 186.533H152.076M117.143 224.689V262.844M117.143 224.689H152.076M117.143 262.844V301M117.143 262.844H152.076M117.143 301V339.155M117.143 301H152.076M117.143 339.155V377.31M117.143 339.155H152.076M117.143 377.31V415.466M117.143 377.31H152.076M117.143 415.466V453.621M117.143 415.466H152.076M117.143 453.621V491.776M117.143 453.621H152.076M117.143 491.776V529.932M117.143 491.776H152.076M117.143 529.932V568.087M117.143 529.932H152.076M117.143 568.087V606.243M117.143 568.087H152.076M117.143 606.243V644.398M117.143 606.243H152.076M117.143 644.398V682.553M117.143 644.398H152.076M117.143 682.553H152.076M152.076 -80.5542V-42.3988M152.076 -80.5542H187.009M152.076 -42.3988V-4.24345M152.076 -42.3988H187.009M152.076 -4.24345V33.9119M152.076 -4.24345H187.009M152.076 33.9119V72.0673M152.076 33.9119H187.009M152.076 72.0673V110.223M152.076 72.0673H187.009M152.076 110.223V148.378M152.076 110.223H187.009M152.076 148.378V186.533M152.076 148.378H187.009M152.076 186.533V224.689M152.076 186.533H187.009M152.076 224.689V262.844M152.076 224.689H187.009M152.076 262.844V301M152.076 262.844H187.009M152.076 301V339.155M152.076 301H187.009M152.076 339.155V377.31M152.076 339.155H187.009M152.076 377.31V415.466M152.076 377.31H187.009M152.076 415.466V453.621M152.076 415.466H187.009M152.076 453.621V491.776M152.076 453.621H187.009M152.076 491.776V529.932M152.076 491.776H187.009M152.076 529.932V568.087M152.076 529.932H187.009M152.076 568.087V606.243M152.076 568.087H187.009M152.076 606.243V644.398M152.076 606.243H187.009M152.076 644.398V682.553M152.076 644.398H187.009M152.076 682.553H187.009M187.009 -80.5542V-42.3988M187.009 -80.5542H221.942M187.009 -42.3988V-4.24345M187.009 -42.3988H221.942M187.009 -4.24345V33.9119M187.009 -4.24345H221.942M187.009 33.9119V72.0673M187.009 33.9119H221.942M187.009 72.0673V110.223M187.009 72.0673H221.942M187.009 110.223V148.378M187.009 110.223H221.942M187.009 148.378V186.533M187.009 148.378H221.942M187.009 186.533V224.689M187.009 186.533H221.942M187.009 224.689V262.844M187.009 224.689H221.942M187.009 262.844V301M187.009 262.844H221.942M187.009 301V339.155M187.009 301H221.942M187.009 339.155V377.31M187.009 339.155H221.942M187.009 377.31V415.466M187.009 377.31H221.942M187.009 415.466V453.621M187.009 415.466H221.942M187.009 453.621V491.776M187.009 453.621H221.942M187.009 491.776V529.932M187.009 491.776H221.942M187.009 529.932V568.087M187.009 529.932H221.942M187.009 568.087V606.243M187.009 568.087H221.942M187.009 606.243V644.398M187.009 606.243H221.942M187.009 644.398V682.553M187.009 644.398H221.942M187.009 682.553H221.942M221.942 -80.5542V-42.3988M221.942 -80.5542H256.874M221.942 -42.3988V-4.24345M221.942 -42.3988H256.874M221.942 -4.24345V33.9119M221.942 -4.24345H256.874M221.942 33.9119V72.0673M221.942 33.9119H256.874M221.942 72.0673V110.223M221.942 72.0673H256.874M221.942 110.223V148.378M221.942 110.223H256.874M221.942 148.378V186.533M221.942 148.378H256.874M221.942 186.533V224.689M221.942 186.533H256.874M221.942 224.689V262.844M221.942 224.689H256.874M221.942 262.844V301M221.942 262.844H256.874M221.942 301V339.155M221.942 301H256.874M221.942 339.155V377.31M221.942 339.155H256.874M221.942 377.31V415.466M221.942 377.31H256.874M221.942 415.466V453.621M221.942 415.466H256.874M221.942 453.621V491.776M221.942 453.621H256.874M221.942 491.776V529.932M221.942 491.776H256.874M221.942 529.932V568.087M221.942 529.932H256.874M221.942 568.087V606.243M221.942 568.087H256.874M221.942 606.243V644.398M221.942 606.243H256.874M221.942 644.398V682.553M221.942 644.398H256.874M221.942 682.553H256.874M256.874 -80.5542V-42.3988M256.874 -80.5542H291.807M256.874 -42.3988V-4.24345M256.874 -42.3988H291.807M256.874 -4.24345V33.9119M256.874 -4.24345H291.807M256.874 33.9119V72.0673M256.874 33.9119H291.807M256.874 72.0673V110.223M256.874 72.0673H291.807M256.874 110.223V148.378M256.874 110.223H291.807M256.874 148.378V186.533M256.874 148.378H291.807M256.874 186.533V224.689M256.874 186.533H291.807M256.874 224.689V262.844M256.874 224.689H291.807M256.874 262.844V301M256.874 262.844H291.807M256.874 301V339.155M256.874 301H291.807M256.874 339.155V377.31M256.874 339.155H291.807M256.874 377.31V415.466M256.874 377.31H291.807M256.874 415.466V453.621M256.874 415.466H291.807M256.874 453.621V491.776M256.874 453.621H291.807M256.874 491.776V529.932M256.874 491.776H291.807M256.874 529.932V568.087M256.874 529.932H291.807M256.874 568.087V606.243M256.874 568.087H291.807M256.874 606.243V644.398M256.874 606.243H291.807M256.874 644.398V682.553M256.874 644.398H291.807M256.874 682.553H291.807M291.807 -80.5542V-42.3988M291.807 -80.5542H326.74M291.807 -42.3988V-4.24345M291.807 -42.3988H326.74M291.807 -4.24345V33.9119M291.807 -4.24345H326.74M291.807 33.9119V72.0673M291.807 33.9119H326.74M291.807 72.0673V110.223M291.807 72.0673H326.74M291.807 110.223V148.378M291.807 110.223H326.74M291.807 148.378V186.533M291.807 148.378H326.74M291.807 186.533V224.689M291.807 186.533H326.74M291.807 224.689V262.844M291.807 224.689H326.74M291.807 262.844V301M291.807 262.844H326.74M291.807 301V339.155M291.807 301H326.74M291.807 339.155V377.31M291.807 339.155H326.74M291.807 377.31V415.466M291.807 377.31H326.74M291.807 415.466V453.621M291.807 415.466H326.74M291.807 453.621V491.776M291.807 453.621H326.74M291.807 491.776V529.932M291.807 491.776H326.74M291.807 529.932V568.087M291.807 529.932H326.74M291.807 568.087V606.243M291.807 568.087H326.74M291.807 606.243V644.398M291.807 606.243H326.74M291.807 644.398V682.553M291.807 644.398H326.74M291.807 682.553H326.74M326.74 -80.5542V-42.3988M326.74 -80.5542H361.672M326.74 -42.3988V-4.24345M326.74 -42.3988H361.672M326.74 -4.24345V33.9119M326.74 -4.24345H361.672M326.74 33.9119V72.0673M326.74 33.9119H361.672M326.74 72.0673V110.223M326.74 72.0673H361.672M326.74 110.223V148.378M326.74 110.223H361.672M326.74 148.378V186.533M326.74 148.378H361.672M326.74 186.533V224.689M326.74 186.533H361.672M326.74 224.689V262.844M326.74 224.689H361.672M326.74 262.844V301M326.74 262.844H361.672M326.74 301V339.155M326.74 301H361.672M326.74 339.155V377.31M326.74 339.155H361.672M326.74 377.31V415.466M326.74 377.31H361.672M326.74 415.466V453.621M326.74 415.466H361.672M326.74 453.621V491.776M326.74 453.621H361.672M326.74 491.776V529.932M326.74 491.776H361.672M326.74 529.932V568.087M326.74 529.932H361.672M326.74 568.087V606.243M326.74 568.087H361.672M326.74 606.243V644.398M326.74 606.243H361.672M326.74 644.398V682.553M326.74 644.398H361.672M326.74 682.553H361.672M361.672 -80.5542V-42.3988M361.672 -80.5542H396.605M361.672 -42.3988V-4.24345M361.672 -42.3988H396.605M361.672 -4.24345V33.9119M361.672 -4.24345H396.605M361.672 33.9119V72.0673M361.672 33.9119H396.605M361.672 72.0673V110.223M361.672 72.0673H396.605M361.672 110.223V148.378M361.672 110.223H396.605M361.672 148.378V186.533M361.672 148.378H396.605M361.672 186.533V224.689M361.672 186.533H396.605M361.672 224.689V262.844M361.672 224.689H396.605M361.672 262.844V301M361.672 262.844H396.605M361.672 301V339.155M361.672 301H396.605M361.672 339.155V377.31M361.672 339.155H396.605M361.672 377.31V415.466M361.672 377.31H396.605M361.672 415.466V453.621M361.672 415.466H396.605M361.672 453.621V491.776M361.672 453.621H396.605M361.672 491.776V529.932M361.672 491.776H396.605M361.672 529.932V568.087M361.672 529.932H396.605M361.672 568.087V606.243M361.672 568.087H396.605M361.672 606.243V644.398M361.672 606.243H396.605M361.672 644.398V682.553M361.672 644.398H396.605M361.672 682.553H396.605M396.605 -80.5542V-42.3988M396.605 -80.5542H431.538M396.605 -42.3988V-4.24345M396.605 -42.3988H431.538M396.605 -4.24345V33.9119M396.605 -4.24345H431.538M396.605 33.9119V72.0673M396.605 33.9119H431.538M396.605 72.0673V110.223M396.605 72.0673H431.538M396.605 110.223V148.378M396.605 110.223H431.538M396.605 148.378V186.533M396.605 148.378H431.538M396.605 186.533V224.689M396.605 186.533H431.538M396.605 224.689V262.844M396.605 224.689H431.538M396.605 262.844V301M396.605 262.844H431.538M396.605 301V339.155M396.605 301H431.538M396.605 339.155V377.31M396.605 339.155H431.538M396.605 377.31V415.466M396.605 377.31H431.538M396.605 415.466V453.621M396.605 415.466H431.538M396.605 453.621V491.776M396.605 453.621H431.538M396.605 491.776V529.932M396.605 491.776H431.538M396.605 529.932V568.087M396.605 529.932H431.538M396.605 568.087V606.243M396.605 568.087H431.538M396.605 606.243V644.398M396.605 606.243H431.538M396.605 644.398V682.553M396.605 644.398H431.538M396.605 682.553H431.538M431.538 -80.5542V-42.3988M431.538 -80.5542H466.471M431.538 -42.3988V-4.24345M431.538 -42.3988H466.471M431.538 -4.24345V33.9119M431.538 -4.24345H466.471M431.538 33.9119V72.0673M431.538 33.9119H466.471M431.538 72.0673V110.223M431.538 72.0673H466.471M431.538 110.223V148.378M431.538 110.223H466.471M431.538 148.378V186.533M431.538 148.378H466.471M431.538 186.533V224.689M431.538 186.533H466.471M431.538 224.689V262.844M431.538 224.689H466.471M431.538 262.844V301M431.538 262.844H466.471M431.538 301V339.155M431.538 301H466.471M431.538 339.155V377.31M431.538 339.155H466.471M431.538 377.31V415.466M431.538 377.31H466.471M431.538 415.466V453.621M431.538 415.466H466.471M431.538 453.621V491.776M431.538 453.621H466.471M431.538 491.776V529.932M431.538 491.776H466.471M431.538 529.932V568.087M431.538 529.932H466.471M431.538 568.087V606.243M431.538 568.087H466.471M431.538 606.243V644.398M431.538 606.243H466.471M431.538 644.398V682.553M431.538 644.398H466.471M431.538 682.553H466.471M466.471 -80.5542V-42.3988M466.471 -80.5542H501.403M466.471 -42.3988V-4.24345M466.471 -42.3988H501.403M466.471 -4.24345V33.9119M466.471 -4.24345H501.403M466.471 33.9119V72.0673M466.471 33.9119H501.403M466.471 72.0673V110.223M466.471 72.0673H501.403M466.471 110.223V148.378M466.471 110.223H501.403M466.471 148.378V186.533M466.471 148.378H501.403M466.471 186.533V224.689M466.471 186.533H501.403M466.471 224.689V262.844M466.471 224.689H501.403M466.471 262.844V301M466.471 262.844H501.403M466.471 301V339.155M466.471 301H501.403M466.471 339.155V377.31M466.471 339.155H501.403M466.471 377.31V415.466M466.471 377.31H501.403M466.471 415.466V453.621M466.471 415.466H501.403M466.471 453.621V491.776M466.471 453.621H501.403M466.471 491.776V529.932M466.471 491.776H501.403M466.471 529.932V568.087M466.471 529.932H501.403M466.471 568.087V606.243M466.471 568.087H501.403M466.471 606.243V644.398M466.471 606.243H501.403M466.471 644.398V682.553M466.471 644.398H501.403M466.471 682.553H501.403M501.403 -80.5542V-42.3988M501.403 -80.5542H536.336M501.403 -42.3988V-4.24345M501.403 -42.3988H536.336M501.403 -4.24345V33.9119M501.403 -4.24345H536.336M501.403 33.9119V72.0673M501.403 33.9119H536.336M501.403 72.0673V110.223M501.403 72.0673H536.336M501.403 110.223V148.378M501.403 110.223H536.336M501.403 148.378V186.533M501.403 148.378H536.336M501.403 186.533V224.689M501.403 186.533H536.336M501.403 224.689V262.844M501.403 224.689H536.336M501.403 262.844V301M501.403 262.844H536.336M501.403 301V339.155M501.403 301H536.336M501.403 339.155V377.31M501.403 339.155H536.336M501.403 377.31V415.466M501.403 377.31H536.336M501.403 415.466V453.621M501.403 415.466H536.336M501.403 453.621V491.776M501.403 453.621H536.336M501.403 491.776V529.932M501.403 491.776H536.336M501.403 529.932V568.087M501.403 529.932H536.336M501.403 568.087V606.243M501.403 568.087H536.336M501.403 606.243V644.398M501.403 606.243H536.336M501.403 644.398V682.553M501.403 644.398H536.336M501.403 682.553H536.336M536.336 -80.5542V-42.3988M536.336 -80.5542H571.269M536.336 -42.3988V-4.24345M536.336 -42.3988H571.269M536.336 -4.24345V33.9119M536.336 -4.24345H571.269M536.336 33.9119V72.0673M536.336 33.9119H571.269M536.336 72.0673V110.223M536.336 72.0673H571.269M536.336 110.223V148.378M536.336 110.223H571.269M536.336 148.378V186.533M536.336 148.378H571.269M536.336 186.533V224.689M536.336 186.533H571.269M536.336 224.689V262.844M536.336 224.689H571.269M536.336 262.844V301M536.336 262.844H571.269M536.336 301V339.155M536.336 301H571.269M536.336 339.155V377.31M536.336 339.155H571.269M536.336 377.31V415.466M536.336 377.31H571.269M536.336 415.466V453.621M536.336 415.466H571.269M536.336 453.621V491.776M536.336 453.621H571.269M536.336 491.776V529.932M536.336 491.776H571.269M536.336 529.932V568.087M536.336 529.932H571.269M536.336 568.087V606.243M536.336 568.087H571.269M536.336 606.243V644.398M536.336 606.243H571.269M536.336 644.398V682.553M536.336 644.398H571.269M536.336 682.553H571.269M571.269 -80.5542V-42.3988M571.269 -80.5542H606.202M571.269 -42.3988V-4.24345M571.269 -42.3988H606.202M571.269 -4.24345V33.9119M571.269 -4.24345H606.202M571.269 33.9119V72.0673M571.269 33.9119H606.202M571.269 72.0673V110.223M571.269 72.0673H606.202M571.269 110.223V148.378M571.269 110.223H606.202M571.269 148.378V186.533M571.269 148.378H606.202M571.269 186.533V224.689M571.269 186.533H606.202M571.269 224.689V262.844M571.269 224.689H606.202M571.269 262.844V301M571.269 262.844H606.202M571.269 301V339.155M571.269 301H606.202M571.269 339.155V377.31M571.269 339.155H606.202M571.269 377.31V415.466M571.269 377.31H606.202M571.269 415.466V453.621M571.269 415.466H606.202M571.269 453.621V491.776M571.269 453.621H606.202M571.269 491.776V529.932M571.269 491.776H606.202M571.269 529.932V568.087M571.269 529.932H606.202M571.269 568.087V606.243M571.269 568.087H606.202M571.269 606.243V644.398M571.269 606.243H606.202M571.269 644.398V682.553M571.269 644.398H606.202M571.269 682.553H606.202M606.202 -80.5542V-42.3988M606.202 -80.5542H641.134M606.202 -42.3988V-4.24345M606.202 -42.3988H641.134M606.202 -4.24345V33.9119M606.202 -4.24345H641.134M606.202 33.9119V72.0673M606.202 33.9119H641.134M606.202 72.0673V110.223M606.202 72.0673H641.134M606.202 110.223V148.378M606.202 110.223H641.134M606.202 148.378V186.533M606.202 148.378H641.134M606.202 186.533V224.689M606.202 186.533H641.134M606.202 224.689V262.844M606.202 224.689H641.134M606.202 262.844V301M606.202 262.844H641.134M606.202 301V339.155M606.202 301H641.134M606.202 339.155V377.31M606.202 339.155H641.134M606.202 377.31V415.466M606.202 377.31H641.134M606.202 415.466V453.621M606.202 415.466H641.134M606.202 453.621V491.776M606.202 453.621H641.134M606.202 491.776V529.932M606.202 491.776H641.134M606.202 529.932V568.087M606.202 529.932H641.134M606.202 568.087V606.243M606.202 568.087H641.134M606.202 606.243V644.398M606.202 606.243H641.134M606.202 644.398V682.553M606.202 644.398H641.134M606.202 682.553H641.134M641.134 -80.5542V-42.3988M641.134 -80.5542H676.067M641.134 -42.3988V-4.24345M641.134 -42.3988H676.067M641.134 -4.24345V33.9119M641.134 -4.24345H676.067M641.134 33.9119V72.0673M641.134 33.9119H676.067M641.134 72.0673V110.223M641.134 72.0673H676.067M641.134 110.223V148.378M641.134 110.223H676.067M641.134 148.378V186.533M641.134 148.378H676.067M641.134 186.533V224.689M641.134 186.533H676.067M641.134 224.689V262.844M641.134 224.689H676.067M641.134 262.844V301M641.134 262.844H676.067M641.134 301V339.155M641.134 301H676.067M641.134 339.155V377.31M641.134 339.155H676.067M641.134 377.31V415.466M641.134 377.31H676.067M641.134 415.466V453.621M641.134 415.466H676.067M641.134 453.621V491.776M641.134 453.621H676.067M641.134 491.776V529.932M641.134 491.776H676.067M641.134 529.932V568.087M641.134 529.932H676.067M641.134 568.087V606.243M641.134 568.087H676.067M641.134 606.243V644.398M641.134 606.243H676.067M641.134 644.398V682.553M641.134 644.398H676.067M641.134 682.553H676.067M676.067 -80.5542V-42.3988M676.067 -80.5542H711M676.067 -42.3988V-4.24345M676.067 -42.3988H711M676.067 -4.24345V33.9119M676.067 -4.24345H711M676.067 33.9119V72.0673M676.067 33.9119H711M676.067 72.0673V110.223M676.067 72.0673H711M676.067 110.223V148.378M676.067 110.223H711M676.067 148.378V186.533M676.067 148.378H711M676.067 186.533V224.689M676.067 186.533H711M676.067 224.689V262.844M676.067 224.689H711M676.067 262.844V301M676.067 262.844H711M676.067 301V339.155M676.067 301H711M676.067 339.155V377.31M676.067 339.155H711M676.067 377.31V415.466M676.067 377.31H711M676.067 415.466V453.621M676.067 415.466H711M676.067 453.621V491.776M676.067 453.621H711M676.067 491.776V529.932M676.067 491.776H711M676.067 529.932V568.087M676.067 529.932H711M676.067 568.087V606.243M676.067 568.087H711M676.067 606.243V644.398M676.067 606.243H711M676.067 644.398V682.553M676.067 644.398H711M676.067 682.553H711M711 -80.5542V-42.3988M711 -80.5542H745.932M711 -42.3988V-4.24345M711 -42.3988H745.932M711 -4.24345V33.9119M711 -4.24345H745.932M711 33.9119V72.0673M711 33.9119H745.932M711 72.0673V110.223M711 72.0673H745.932M711 110.223V148.378M711 110.223H745.932M711 148.378V186.533M711 148.378H745.932M711 186.533V224.689M711 186.533H745.932M711 224.689V262.844M711 224.689H745.932M711 262.844V301M711 262.844H745.932M711 301V339.155M711 301H745.932M711 339.155V377.31M711 339.155H745.932M711 377.31V415.466M711 377.31H745.932M711 415.466V453.621M711 415.466H745.932M711 453.621V491.776M711 453.621H745.932M711 491.776V529.932M711 491.776H745.932M711 529.932V568.087M711 529.932H745.932M711 568.087V606.243M711 568.087H745.932M711 606.243V644.398M711 606.243H745.932M711 644.398V682.553M711 644.398H745.932M711 682.553H745.932M745.932 -80.5542V-42.3988M745.932 -80.5542H780.865M745.932 -42.3988V-4.24345M745.932 -42.3988H780.865M745.932 -4.24345V33.9119M745.932 -4.24345H780.865M745.932 33.9119V72.0673M745.932 33.9119H780.865M745.932 72.0673V110.223M745.932 72.0673H780.865M745.932 110.223V148.378M745.932 110.223H780.865M745.932 148.378V186.533M745.932 148.378H780.865M745.932 186.533V224.689M745.932 186.533H780.865M745.932 224.689V262.844M745.932 224.689H780.865M745.932 262.844V301M745.932 262.844H780.865M745.932 301V339.155M745.932 301H780.865M745.932 339.155V377.31M745.932 339.155H780.865M745.932 377.31V415.466M745.932 377.31H780.865M745.932 415.466V453.621M745.932 415.466H780.865M745.932 453.621V491.776M745.932 453.621H780.865M745.932 491.776V529.932M745.932 491.776H780.865M745.932 529.932V568.087M745.932 529.932H780.865M745.932 568.087V606.243M745.932 568.087H780.865M745.932 606.243V644.398M745.932 606.243H780.865M745.932 644.398V682.553M745.932 644.398H780.865M745.932 682.553H780.865M780.865 -80.5542V-42.3988M780.865 -80.5542H815.798M780.865 -42.3988V-4.24345M780.865 -42.3988H815.798M780.865 -4.24345V33.9119M780.865 -4.24345H815.798M780.865 33.9119V72.0673M780.865 33.9119H815.798M780.865 72.0673V110.223M780.865 72.0673H815.798M780.865 110.223V148.378M780.865 110.223H815.798M780.865 148.378V186.533M780.865 148.378H815.798M780.865 186.533V224.689M780.865 186.533H815.798M780.865 224.689V262.844M780.865 224.689H815.798M780.865 262.844V301M780.865 262.844H815.798M780.865 301V339.155M780.865 301H815.798M780.865 339.155V377.31M780.865 339.155H815.798M780.865 377.31V415.466M780.865 377.31H815.798M780.865 415.466V453.621M780.865 415.466H815.798M780.865 453.621V491.776M780.865 453.621H815.798M780.865 491.776V529.932M780.865 491.776H815.798M780.865 529.932V568.087M780.865 529.932H815.798M780.865 568.087V606.243M780.865 568.087H815.798M780.865 606.243V644.398M780.865 606.243H815.798M780.865 644.398V682.553M780.865 644.398H815.798M780.865 682.553H815.798M815.798 -80.5542V-42.3988M815.798 -80.5542H850.731M815.798 -42.3988V-4.24345M815.798 -42.3988H850.731M815.798 -4.24345V33.9119M815.798 -4.24345H850.731M815.798 33.9119V72.0673M815.798 33.9119H850.731M815.798 72.0673V110.223M815.798 72.0673H850.731M815.798 110.223V148.378M815.798 110.223H850.731M815.798 148.378V186.533M815.798 148.378H850.731M815.798 186.533V224.689M815.798 186.533H850.731M815.798 224.689V262.844M815.798 224.689H850.731M815.798 262.844V301M815.798 262.844H850.731M815.798 301V339.155M815.798 301H850.731M815.798 339.155V377.31M815.798 339.155H850.731M815.798 377.31V415.466M815.798 377.31H850.731M815.798 415.466V453.621M815.798 415.466H850.731M815.798 453.621V491.776M815.798 453.621H850.731M815.798 491.776V529.932M815.798 491.776H850.731M815.798 529.932V568.087M815.798 529.932H850.731M815.798 568.087V606.243M815.798 568.087H850.731M815.798 606.243V644.398M815.798 606.243H850.731M815.798 644.398V682.553M815.798 644.398H850.731M815.798 682.553H850.731M850.731 -80.5542V-42.3988M850.731 -80.5542H885.663M850.731 -42.3988V-4.24345M850.731 -42.3988H885.663M850.731 -4.24345V33.9119M850.731 -4.24345H885.663M850.731 33.9119V72.0673M850.731 33.9119H885.663M850.731 72.0673V110.223M850.731 72.0673H885.663M850.731 110.223V148.378M850.731 110.223H885.663M850.731 148.378V186.533M850.731 148.378H885.663M850.731 186.533V224.689M850.731 186.533H885.663M850.731 224.689V262.844M850.731 224.689H885.663M850.731 262.844V301M850.731 262.844H885.663M850.731 301V339.155M850.731 301H885.663M850.731 339.155V377.31M850.731 339.155H885.663M850.731 377.31V415.466M850.731 377.31H885.663M850.731 415.466V453.621M850.731 415.466H885.663M850.731 453.621V491.776M850.731 453.621H885.663M850.731 491.776V529.932M850.731 491.776H885.663M850.731 529.932V568.087M850.731 529.932H885.663M850.731 568.087V606.243M850.731 568.087H885.663M850.731 606.243V644.398M850.731 606.243H885.663M850.731 644.398V682.553M850.731 644.398H885.663M850.731 682.553H885.663M885.663 -80.5542V-42.3988M885.663 -80.5542H920.596M885.663 -42.3988V-4.24345M885.663 -42.3988H920.596M885.663 -4.24345V33.9119M885.663 -4.24345H920.596M885.663 33.9119V72.0673M885.663 33.9119H920.596M885.663 72.0673V110.223M885.663 72.0673H920.596M885.663 110.223V148.378M885.663 110.223H920.596M885.663 148.378V186.533M885.663 148.378H920.596M885.663 186.533V224.689M885.663 186.533H920.596M885.663 224.689V262.844M885.663 224.689H920.596M885.663 262.844V301M885.663 262.844H920.596M885.663 301V339.155M885.663 301H920.596M885.663 339.155V377.31M885.663 339.155H920.596M885.663 377.31V415.466M885.663 377.31H920.596M885.663 415.466V453.621M885.663 415.466H920.596M885.663 453.621V491.776M885.663 453.621H920.596M885.663 491.776V529.932M885.663 491.776H920.596M885.663 529.932V568.087M885.663 529.932H920.596M885.663 568.087V606.243M885.663 568.087H920.596M885.663 606.243V644.398M885.663 606.243H920.596M885.663 644.398V682.553M885.663 644.398H920.596M885.663 682.553H920.596M920.596 -80.5542V-42.3988M920.596 -80.5542H955.529M920.596 -42.3988V-4.24345M920.596 -42.3988H955.529M920.596 -4.24345V33.9119M920.596 -4.24345H955.529M920.596 33.9119V72.0673M920.596 33.9119H955.529M920.596 72.0673V110.223M920.596 72.0673H955.529M920.596 110.223V148.378M920.596 110.223H955.529M920.596 148.378V186.533M920.596 148.378H955.529M920.596 186.533V224.689M920.596 186.533H955.529M920.596 224.689V262.844M920.596 224.689H955.529M920.596 262.844V301M920.596 262.844H955.529M920.596 301V339.155M920.596 301H955.529M920.596 339.155V377.31M920.596 339.155H955.529M920.596 377.31V415.466M920.596 377.31H955.529M920.596 415.466V453.621M920.596 415.466H955.529M920.596 453.621V491.776M920.596 453.621H955.529M920.596 491.776V529.932M920.596 491.776H955.529M920.596 529.932V568.087M920.596 529.932H955.529M920.596 568.087V606.243M920.596 568.087H955.529M920.596 606.243V644.398M920.596 606.243H955.529M920.596 644.398V682.553M920.596 644.398H955.529M920.596 682.553H955.529M955.529 -80.5542V-42.3988M955.529 -80.5542H990.462M955.529 -42.3988V-4.24345M955.529 -42.3988H990.462M955.529 -4.24345V33.9119M955.529 -4.24345H990.462M955.529 33.9119V72.0673M955.529 33.9119H990.462M955.529 72.0673V110.223M955.529 72.0673H990.462M955.529 110.223V148.378M955.529 110.223H990.462M955.529 148.378V186.533M955.529 148.378H990.462M955.529 186.533V224.689M955.529 186.533H990.462M955.529 224.689V262.844M955.529 224.689H990.462M955.529 262.844V301M955.529 262.844H990.462M955.529 301V339.155M955.529 301H990.462M955.529 339.155V377.31M955.529 339.155H990.462M955.529 377.31V415.466M955.529 377.31H990.462M955.529 415.466V453.621M955.529 415.466H990.462M955.529 453.621V491.776M955.529 453.621H990.462M955.529 491.776V529.932M955.529 491.776H990.462M955.529 529.932V568.087M955.529 529.932H990.462M955.529 568.087V606.243M955.529 568.087H990.462M955.529 606.243V644.398M955.529 606.243H990.462M955.529 644.398V682.553M955.529 644.398H990.462M955.529 682.553H990.462M990.462 -80.5542V-42.3988M990.462 -80.5542H1025.39M990.462 -42.3988V-4.24345M990.462 -42.3988H1025.39M990.462 -4.24345V33.9119M990.462 -4.24345H1025.39M990.462 33.9119V72.0673M990.462 33.9119H1025.39M990.462 72.0673V110.223M990.462 72.0673H1025.39M990.462 110.223V148.378M990.462 110.223H1025.39M990.462 148.378V186.533M990.462 148.378H1025.39M990.462 186.533V224.689M990.462 186.533H1025.39M990.462 224.689V262.844M990.462 224.689H1025.39M990.462 262.844V301M990.462 262.844H1025.39M990.462 301V339.155M990.462 301H1025.39M990.462 339.155V377.31M990.462 339.155H1025.39M990.462 377.31V415.466M990.462 377.31H1025.39M990.462 415.466V453.621M990.462 415.466H1025.39M990.462 453.621V491.776M990.462 453.621H1025.39M990.462 491.776V529.932M990.462 491.776H1025.39M990.462 529.932V568.087M990.462 529.932H1025.39M990.462 568.087V606.243M990.462 568.087H1025.39M990.462 606.243V644.398M990.462 606.243H1025.39M990.462 644.398V682.553M990.462 644.398H1025.39M990.462 682.553H1025.39M1025.39 -80.5542V-42.3988M1025.39 -80.5542H1060.33M1025.39 -42.3988V-4.24345M1025.39 -42.3988H1060.33M1025.39 -4.24345V33.9119M1025.39 -4.24345H1060.33M1025.39 33.9119V72.0673M1025.39 33.9119H1060.33M1025.39 72.0673V110.223M1025.39 72.0673H1060.33M1025.39 110.223V148.378M1025.39 110.223H1060.33M1025.39 148.378V186.533M1025.39 148.378H1060.33M1025.39 186.533V224.689M1025.39 186.533H1060.33M1025.39 224.689V262.844M1025.39 224.689H1060.33M1025.39 262.844V301M1025.39 262.844H1060.33M1025.39 301V339.155M1025.39 301H1060.33M1025.39 339.155V377.31M1025.39 339.155H1060.33M1025.39 377.31V415.466M1025.39 377.31H1060.33M1025.39 415.466V453.621M1025.39 415.466H1060.33M1025.39 453.621V491.776M1025.39 453.621H1060.33M1025.39 491.776V529.932M1025.39 491.776H1060.33M1025.39 529.932V568.087M1025.39 529.932H1060.33M1025.39 568.087V606.243M1025.39 568.087H1060.33M1025.39 606.243V644.398M1025.39 606.243H1060.33M1025.39 644.398V682.553M1025.39 644.398H1060.33M1025.39 682.553H1060.33M1060.33 -80.5542V-42.3988M1060.33 -80.5542H1095.26M1060.33 -42.3988V-4.24345M1060.33 -42.3988H1095.26M1060.33 -4.24345V33.9119M1060.33 -4.24345H1095.26M1060.33 33.9119V72.0673M1060.33 33.9119H1095.26M1060.33 72.0673V110.223M1060.33 72.0673H1095.26M1060.33 110.223V148.378M1060.33 110.223H1095.26M1060.33 148.378V186.533M1060.33 148.378H1095.26M1060.33 186.533V224.689M1060.33 186.533H1095.26M1060.33 224.689V262.844M1060.33 224.689H1095.26M1060.33 262.844V301M1060.33 262.844H1095.26M1060.33 301V339.155M1060.33 301H1095.26M1060.33 339.155V377.31M1060.33 339.155H1095.26M1060.33 377.31V415.466M1060.33 377.31H1095.26M1060.33 415.466V453.621M1060.33 415.466H1095.26M1060.33 453.621V491.776M1060.33 453.621H1095.26M1060.33 491.776V529.932M1060.33 491.776H1095.26M1060.33 529.932V568.087M1060.33 529.932H1095.26M1060.33 568.087V606.243M1060.33 568.087H1095.26M1060.33 606.243V644.398M1060.33 606.243H1095.26M1060.33 644.398V682.553M1060.33 644.398H1095.26M1060.33 682.553H1095.26M1095.26 -80.5542V-42.3988M1095.26 -80.5542H1130.19M1095.26 -42.3988V-4.24345M1095.26 -42.3988H1130.19M1095.26 -4.24345V33.9119M1095.26 -4.24345H1130.19M1095.26 33.9119V72.0673M1095.26 33.9119H1130.19M1095.26 72.0673V110.223M1095.26 72.0673H1130.19M1095.26 110.223V148.378M1095.26 110.223H1130.19M1095.26 148.378V186.533M1095.26 148.378H1130.19M1095.26 186.533V224.689M1095.26 186.533H1130.19M1095.26 224.689V262.844M1095.26 224.689H1130.19M1095.26 262.844V301M1095.26 262.844H1130.19M1095.26 301V339.155M1095.26 301H1130.19M1095.26 339.155V377.31M1095.26 339.155H1130.19M1095.26 377.31V415.466M1095.26 377.31H1130.19M1095.26 415.466V453.621M1095.26 415.466H1130.19M1095.26 453.621V491.776M1095.26 453.621H1130.19M1095.26 491.776V529.932M1095.26 491.776H1130.19M1095.26 529.932V568.087M1095.26 529.932H1130.19M1095.26 568.087V606.243M1095.26 568.087H1130.19M1095.26 606.243V644.398M1095.26 606.243H1130.19M1095.26 644.398V682.553M1095.26 644.398H1130.19M1095.26 682.553H1130.19M1130.19 -80.5542V-42.3988M1130.19 -80.5542H1165.13M1130.19 -42.3988V-4.24345M1130.19 -42.3988H1165.13M1130.19 -4.24345V33.9119M1130.19 -4.24345H1165.13M1130.19 33.9119V72.0673M1130.19 33.9119H1165.13M1130.19 72.0673V110.223M1130.19 72.0673H1165.13M1130.19 110.223V148.378M1130.19 110.223H1165.13M1130.19 148.378V186.533M1130.19 148.378H1165.13M1130.19 186.533V224.689M1130.19 186.533H1165.13M1130.19 224.689V262.844M1130.19 224.689H1165.13M1130.19 262.844V301M1130.19 262.844H1165.13M1130.19 301V339.155M1130.19 301H1165.13M1130.19 339.155V377.31M1130.19 339.155H1165.13M1130.19 377.31V415.466M1130.19 377.31H1165.13M1130.19 415.466V453.621M1130.19 415.466H1165.13M1130.19 453.621V491.776M1130.19 453.621H1165.13M1130.19 491.776V529.932M1130.19 491.776H1165.13M1130.19 529.932V568.087M1130.19 529.932H1165.13M1130.19 568.087V606.243M1130.19 568.087H1165.13M1130.19 606.243V644.398M1130.19 606.243H1165.13M1130.19 644.398V682.553M1130.19 644.398H1165.13M1130.19 682.553H1165.13M1165.13 -80.5542V-42.3988M1165.13 -80.5542H1200.06M1165.13 -42.3988V-4.24345M1165.13 -42.3988H1200.06M1165.13 -4.24345V33.9119M1165.13 -4.24345H1200.06M1165.13 33.9119V72.0673M1165.13 33.9119H1200.06M1165.13 72.0673V110.223M1165.13 72.0673H1200.06M1165.13 110.223V148.378M1165.13 110.223H1200.06M1165.13 148.378V186.533M1165.13 148.378H1200.06M1165.13 186.533V224.689M1165.13 186.533H1200.06M1165.13 224.689V262.844M1165.13 224.689H1200.06M1165.13 262.844V301M1165.13 262.844H1200.06M1165.13 301V339.155M1165.13 301H1200.06M1165.13 339.155V377.31M1165.13 339.155H1200.06M1165.13 377.31V415.466M1165.13 377.31H1200.06M1165.13 415.466V453.621M1165.13 415.466H1200.06M1165.13 453.621V491.776M1165.13 453.621H1200.06M1165.13 491.776V529.932M1165.13 491.776H1200.06M1165.13 529.932V568.087M1165.13 529.932H1200.06M1165.13 568.087V606.243M1165.13 568.087H1200.06M1165.13 606.243V644.398M1165.13 606.243H1200.06M1165.13 644.398V682.553M1165.13 644.398H1200.06M1165.13 682.553H1200.06M1200.06 -80.5542V-42.3988M1200.06 -80.5542H1234.99M1200.06 -42.3988V-4.24345M1200.06 -42.3988H1234.99M1200.06 -4.24345V33.9119M1200.06 -4.24345H1234.99M1200.06 33.9119V72.0673M1200.06 33.9119H1234.99M1200.06 72.0673V110.223M1200.06 72.0673H1234.99M1200.06 110.223V148.378M1200.06 110.223H1234.99M1200.06 148.378V186.533M1200.06 148.378H1234.99M1200.06 186.533V224.689M1200.06 186.533H1234.99M1200.06 224.689V262.844M1200.06 224.689H1234.99M1200.06 262.844V301M1200.06 262.844H1234.99M1200.06 301V339.155M1200.06 301H1234.99M1200.06 339.155V377.31M1200.06 339.155H1234.99M1200.06 377.31V415.466M1200.06 377.31H1234.99M1200.06 415.466V453.621M1200.06 415.466H1234.99M1200.06 453.621V491.776M1200.06 453.621H1234.99M1200.06 491.776V529.932M1200.06 491.776H1234.99M1200.06 529.932V568.087M1200.06 529.932H1234.99M1200.06 568.087V606.243M1200.06 568.087H1234.99M1200.06 606.243V644.398M1200.06 606.243H1234.99M1200.06 644.398V682.553M1200.06 644.398H1234.99M1200.06 682.553H1234.99M1234.99 -80.5542V-42.3988M1234.99 -80.5542H1269.92M1234.99 -42.3988V-4.24345M1234.99 -42.3988H1269.92M1234.99 -4.24345V33.9119M1234.99 -4.24345H1269.92M1234.99 33.9119V72.0673M1234.99 33.9119H1269.92M1234.99 72.0673V110.223M1234.99 72.0673H1269.92M1234.99 110.223V148.378M1234.99 110.223H1269.92M1234.99 148.378V186.533M1234.99 148.378H1269.92M1234.99 186.533V224.689M1234.99 186.533H1269.92M1234.99 224.689V262.844M1234.99 224.689H1269.92M1234.99 262.844V301M1234.99 262.844H1269.92M1234.99 301V339.155M1234.99 301H1269.92M1234.99 339.155V377.31M1234.99 339.155H1269.92M1234.99 377.31V415.466M1234.99 377.31H1269.92M1234.99 415.466V453.621M1234.99 415.466H1269.92M1234.99 453.621V491.776M1234.99 453.621H1269.92M1234.99 491.776V529.932M1234.99 491.776H1269.92M1234.99 529.932V568.087M1234.99 529.932H1269.92M1234.99 568.087V606.243M1234.99 568.087H1269.92M1234.99 606.243V644.398M1234.99 606.243H1269.92M1234.99 644.398V682.553M1234.99 644.398H1269.92M1234.99 682.553H1269.92M1269.92 -80.5542V-42.3988M1269.92 -80.5542H1304.86M1269.92 -42.3988V-4.24345M1269.92 -42.3988H1304.86M1269.92 -4.24345V33.9119M1269.92 -4.24345H1304.86M1269.92 33.9119V72.0673M1269.92 33.9119H1304.86M1269.92 72.0673V110.223M1269.92 72.0673H1304.86M1269.92 110.223V148.378M1269.92 110.223H1304.86M1269.92 148.378V186.533M1269.92 148.378H1304.86M1269.92 186.533V224.689M1269.92 186.533H1304.86M1269.92 224.689V262.844M1269.92 224.689H1304.86M1269.92 262.844V301M1269.92 262.844H1304.86M1269.92 301V339.155M1269.92 301H1304.86M1269.92 339.155V377.31M1269.92 339.155H1304.86M1269.92 377.31V415.466M1269.92 377.31H1304.86M1269.92 415.466V453.621M1269.92 415.466H1304.86M1269.92 453.621V491.776M1269.92 453.621H1304.86M1269.92 491.776V529.932M1269.92 491.776H1304.86M1269.92 529.932V568.087M1269.92 529.932H1304.86M1269.92 568.087V606.243M1269.92 568.087H1304.86M1269.92 606.243V644.398M1269.92 606.243H1304.86M1269.92 644.398V682.553M1269.92 644.398H1304.86M1269.92 682.553H1304.86M1304.86 -80.5542V-42.3988M1304.86 -80.5542H1339.79M1304.86 -42.3988V-4.24345M1304.86 -42.3988H1339.79M1304.86 -4.24345V33.9119M1304.86 -4.24345H1339.79M1304.86 33.9119V72.0673M1304.86 33.9119H1339.79M1304.86 72.0673V110.223M1304.86 72.0673H1339.79M1304.86 110.223V148.378M1304.86 110.223H1339.79M1304.86 148.378V186.533M1304.86 148.378H1339.79M1304.86 186.533V224.689M1304.86 186.533H1339.79M1304.86 224.689V262.844M1304.86 224.689H1339.79M1304.86 262.844V301M1304.86 262.844H1339.79M1304.86 301V339.155M1304.86 301H1339.79M1304.86 339.155V377.31M1304.86 339.155H1339.79M1304.86 377.31V415.466M1304.86 377.31H1339.79M1304.86 415.466V453.621M1304.86 415.466H1339.79M1304.86 453.621V491.776M1304.86 453.621H1339.79M1304.86 491.776V529.932M1304.86 491.776H1339.79M1304.86 529.932V568.087M1304.86 529.932H1339.79M1304.86 568.087V606.243M1304.86 568.087H1339.79M1304.86 606.243V644.398M1304.86 606.243H1339.79M1304.86 644.398V682.553M1304.86 644.398H1339.79M1304.86 682.553H1339.79M1339.79 -80.5542V-42.3988M1339.79 -80.5542H1374.72M1339.79 -42.3988V-4.24345M1339.79 -42.3988H1374.72M1339.79 -4.24345V33.9119M1339.79 -4.24345H1374.72M1339.79 33.9119V72.0673M1339.79 33.9119H1374.72M1339.79 72.0673V110.223M1339.79 72.0673H1374.72M1339.79 110.223V148.378M1339.79 110.223H1374.72M1339.79 148.378V186.533M1339.79 148.378H1374.72M1339.79 186.533V224.689M1339.79 186.533H1374.72M1339.79 224.689V262.844M1339.79 224.689H1374.72M1339.79 262.844V301M1339.79 262.844H1374.72M1339.79 301V339.155M1339.79 301H1374.72M1339.79 339.155V377.31M1339.79 339.155H1374.72M1339.79 377.31V415.466M1339.79 377.31H1374.72M1339.79 415.466V453.621M1339.79 415.466H1374.72M1339.79 453.621V491.776M1339.79 453.621H1374.72M1339.79 491.776V529.932M1339.79 491.776H1374.72M1339.79 529.932V568.087M1339.79 529.932H1374.72M1339.79 568.087V606.243M1339.79 568.087H1374.72M1339.79 606.243V644.398M1339.79 606.243H1374.72M1339.79 644.398V682.553M1339.79 644.398H1374.72M1339.79 682.553H1374.72M1374.72 -80.5542V-42.3988M1374.72 -80.5542H1409.65M1374.72 -42.3988V-4.24345M1374.72 -42.3988H1409.65M1374.72 -4.24345V33.9119M1374.72 -4.24345H1409.65M1374.72 33.9119V72.0673M1374.72 33.9119H1409.65M1374.72 72.0673V110.223M1374.72 72.0673H1409.65M1374.72 110.223V148.378M1374.72 110.223H1409.65M1374.72 148.378V186.533M1374.72 148.378H1409.65M1374.72 186.533V224.689M1374.72 186.533H1409.65M1374.72 224.689V262.844M1374.72 224.689H1409.65M1374.72 262.844V301M1374.72 262.844H1409.65M1374.72 301V339.155M1374.72 301H1409.65M1374.72 339.155V377.31M1374.72 339.155H1409.65M1374.72 377.31V415.466M1374.72 377.31H1409.65M1374.72 415.466V453.621M1374.72 415.466H1409.65M1374.72 453.621V491.776M1374.72 453.621H1409.65M1374.72 491.776V529.932M1374.72 491.776H1409.65M1374.72 529.932V568.087M1374.72 529.932H1409.65M1374.72 568.087V606.243M1374.72 568.087H1409.65M1374.72 606.243V644.398M1374.72 606.243H1409.65M1374.72 644.398V682.553M1374.72 644.398H1409.65M1374.72 682.553H1409.65M1409.65 -80.5542V-42.3988M1409.65 -80.5542H1444.59M1409.65 -42.3988V-4.24345M1409.65 -42.3988H1444.59M1409.65 -4.24345V33.9119M1409.65 -4.24345H1444.59M1409.65 33.9119V72.0673M1409.65 33.9119H1444.59M1409.65 72.0673V110.223M1409.65 72.0673H1444.59M1409.65 110.223V148.378M1409.65 110.223H1444.59M1409.65 148.378V186.533M1409.65 148.378H1444.59M1409.65 186.533V224.689M1409.65 186.533H1444.59M1409.65 224.689V262.844M1409.65 224.689H1444.59M1409.65 262.844V301M1409.65 262.844H1444.59M1409.65 301V339.155M1409.65 301H1444.59M1409.65 339.155V377.31M1409.65 339.155H1444.59M1409.65 377.31V415.466M1409.65 377.31H1444.59M1409.65 415.466V453.621M1409.65 415.466H1444.59M1409.65 453.621V491.776M1409.65 453.621H1444.59M1409.65 491.776V529.932M1409.65 491.776H1444.59M1409.65 529.932V568.087M1409.65 529.932H1444.59M1409.65 568.087V606.243M1409.65 568.087H1444.59M1409.65 606.243V644.398M1409.65 606.243H1444.59M1409.65 644.398V682.553M1409.65 644.398H1444.59M1409.65 682.553H1444.59M1444.59 -80.5542V-42.3988M1444.59 -80.5542H1479.52V-42.3988M1444.59 -42.3988V-4.24345M1444.59 -42.3988H1479.52M1444.59 -4.24345V33.9119M1444.59 -4.24345H1479.52M1444.59 33.9119V72.0673M1444.59 33.9119H1479.52M1444.59 72.0673V110.223M1444.59 72.0673H1479.52M1444.59 110.223V148.378M1444.59 110.223H1479.52M1444.59 148.378V186.533M1444.59 148.378H1479.52M1444.59 186.533V224.689M1444.59 186.533H1479.52M1444.59 224.689V262.844M1444.59 224.689H1479.52M1444.59 262.844V301M1444.59 262.844H1479.52M1444.59 301V339.155M1444.59 301H1479.52M1444.59 339.155V377.31M1444.59 339.155H1479.52M1444.59 377.31V415.466M1444.59 377.31H1479.52M1444.59 415.466V453.621M1444.59 415.466H1479.52M1444.59 453.621V491.776M1444.59 453.621H1479.52M1444.59 491.776V529.932M1444.59 491.776H1479.52M1444.59 529.932V568.087M1444.59 529.932H1479.52M1444.59 568.087V606.243M1444.59 568.087H1479.52M1444.59 606.243V644.398M1444.59 606.243H1479.52M1444.59 644.398V682.553M1444.59 644.398H1479.52M1444.59 682.553H1479.52V644.398M1479.52 -42.3988V-4.24345M1479.52 -4.24345V33.9119M1479.52 33.9119V72.0673M1479.52 72.0673V110.223M1479.52 110.223V148.378M1479.52 148.378V186.533M1479.52 186.533V224.689M1479.52 224.689V262.844M1479.52 262.844V301M1479.52 301V339.155M1479.52 339.155V377.31M1479.52 377.31V415.466M1479.52 415.466V453.621M1479.52 453.621V491.776M1479.52 491.776V529.932M1479.52 529.932V568.087M1479.52 568.087V606.243M1479.52 606.243V644.398" stroke="black" stroke-width="0.731699"/>
</g>
<g style="mix-blend-mode:overlay" opacity="0.4">
<path d="M82.2108 60.6209V72.0675M82.2108 72.0675V83.5141M82.2108 72.0675H71.7309M82.2108 72.0675H92.6906M82.2108 365.864V377.311M82.2108 377.311V388.757M82.2108 377.311H71.7309M82.2108 377.311H92.6906M82.2108 671.107V682.553M82.2108 682.553V694M82.2108 682.553H71.7309M82.2108 682.553H92.6906M361.673 60.6209V72.0675M361.673 72.0675V83.5141M361.673 72.0675H351.193M361.673 72.0675H372.152M361.673 365.864V377.311M361.673 377.311V388.757M361.673 377.311H351.193M361.673 377.311H372.152M361.673 671.107V682.553M361.673 682.553V694M361.673 682.553H351.193M361.673 682.553H372.152M641.134 60.6209V72.0675M641.134 72.0675V83.5141M641.134 72.0675H630.655M641.134 72.0675H651.614M641.134 365.864V377.311M641.134 377.311V388.757M641.134 377.311H630.655M641.134 377.311H651.614M641.134 671.107V682.553M641.134 682.553V694M641.134 682.553H630.655M641.134 682.553H651.614M920.596 60.6209V72.0675M920.596 72.0675V83.5141M920.596 72.0675H910.116M920.596 72.0675H931.076M920.596 365.864V377.311M920.596 377.311V388.757M920.596 377.311H910.116M920.596 377.311H931.076M920.596 671.107V682.553M920.596 682.553V694M920.596 682.553H910.116M920.596 682.553H931.076M1200.06 60.6209V72.0675M1200.06 72.0675V83.5141M1200.06 72.0675H1189.58M1200.06 72.0675H1210.54M1200.06 365.864V377.311M1200.06 377.311V388.757M1200.06 377.311H1189.58M1200.06 377.311H1210.54M1200.06 671.107V682.553M1200.06 682.553V694M1200.06 682.553H1189.58M1200.06 682.553H1210.54M1479.52 60.6209V72.0675M1479.52 72.0675V83.5141M1479.52 72.0675H1469.04M1479.52 72.0675H1490M1479.52 365.864V377.311M1479.52 377.311V388.757M1479.52 377.311H1469.04M1479.52 377.311H1490M1479.52 671.107V682.553M1479.52 682.553V694M1479.52 682.553H1469.04M1479.52 682.553H1490M82.2108 -92.0005V-80.5539M82.2108 -80.5539V-69.1073M82.2108 -80.5539H71.7309M82.2108 -80.5539H92.6906M82.2108 213.243V224.689M82.2108 224.689V236.136M82.2108 224.689H71.7309M82.2108 224.689H92.6906M82.2108 518.485V529.932M82.2108 529.932V541.379M82.2108 529.932H71.7309M82.2108 529.932H92.6906M361.673 -92.0005V-80.5539M361.673 -80.5539V-69.1073M361.673 -80.5539H351.193M361.673 -80.5539H372.152M361.673 213.243V224.689M361.673 224.689V236.136M361.673 224.689H351.193M361.673 224.689H372.152M361.673 518.485V529.932M361.673 529.932V541.379M361.673 529.932H351.193M361.673 529.932H372.152M641.134 -92.0005V-80.5539M641.134 -80.5539V-69.1073M641.134 -80.5539H630.655M641.134 -80.5539H651.614M641.134 213.243V224.689M641.134 224.689V236.136M641.134 224.689H630.655M641.134 224.689H651.614M641.134 518.485V529.932M641.134 529.932V541.379M641.134 529.932H630.655M641.134 529.932H651.614M920.596 -92.0005V-80.5539M920.596 -80.5539V-69.1073M920.596 -80.5539H910.116M920.596 -80.5539H931.076M920.596 213.243V224.689M920.596 224.689V236.136M920.596 224.689H910.116M920.596 224.689H931.076M920.596 518.485V529.932M920.596 529.932V541.379M920.596 529.932H910.116M920.596 529.932H931.076M1200.06 -92.0005V-80.5539M1200.06 -80.5539V-69.1073M1200.06 -80.5539H1189.58M1200.06 -80.5539H1210.54M1200.06 213.243V224.689M1200.06 224.689V236.136M1200.06 224.689H1189.58M1200.06 224.689H1210.54M1200.06 518.485V529.932M1200.06 529.932V541.379M1200.06 529.932H1189.58M1200.06 529.932H1210.54M1479.52 -92.0005V-80.5539M1479.52 -80.5539V-69.1073M1479.52 -80.5539H1469.04M1479.52 -80.5539H1490M1479.52 213.243V224.689M1479.52 224.689V236.136M1479.52 224.689H1469.04M1479.52 224.689H1490M1479.52 518.485V529.932M1479.52 529.932V541.379M1479.52 529.932H1469.04M1479.52 529.932H1490M-57.5202 60.6209V72.0675M-57.5202 72.0675V83.5141M-57.5202 72.0675H-68M-57.5202 72.0675H-47.0404M-57.5202 365.864V377.311M-57.5202 377.311V388.757M-57.5202 377.311H-68M-57.5202 377.311H-47.0404M-57.5202 671.107V682.553M-57.5202 682.553V694M-57.5202 682.553H-68M-57.5202 682.553H-47.0404M221.942 60.6209V72.0675M221.942 72.0675V83.5141M221.942 72.0675H211.462M221.942 72.0675H232.422M221.942 365.864V377.311M221.942 377.311V388.757M221.942 377.311H211.462M221.942 377.311H232.422M221.942 671.107V682.553M221.942 682.553V694M221.942 682.553H211.462M221.942 682.553H232.422M501.404 60.6209V72.0675M501.404 72.0675V83.5141M501.404 72.0675H490.924M501.404 72.0675H511.883M501.404 365.864V377.311M501.404 377.311V388.757M501.404 377.311H490.924M501.404 377.311H511.883M501.404 671.107V682.553M501.404 682.553V694M501.404 682.553H490.924M501.404 682.553H511.883M780.865 60.6209V72.0675M780.865 72.0675V83.5141M780.865 72.0675H770.386M780.865 72.0675H791.345M780.865 365.864V377.311M780.865 377.311V388.757M780.865 377.311H770.386M780.865 377.311H791.345M780.865 671.107V682.553M780.865 682.553V694M780.865 682.553H770.386M780.865 682.553H791.345M1060.33 60.6209V72.0675M1060.33 72.0675V83.5141M1060.33 72.0675H1049.85M1060.33 72.0675H1070.81M1060.33 365.864V377.311M1060.33 377.311V388.757M1060.33 377.311H1049.85M1060.33 377.311H1070.81M1060.33 671.107V682.553M1060.33 682.553V694M1060.33 682.553H1049.85M1060.33 682.553H1070.81M1339.79 60.6209V72.0675M1339.79 72.0675V83.5141M1339.79 72.0675H1329.31M1339.79 72.0675H1350.27M1339.79 365.864V377.311M1339.79 377.311V388.757M1339.79 377.311H1329.31M1339.79 377.311H1350.27M1339.79 671.107V682.553M1339.79 682.553V694M1339.79 682.553H1329.31M1339.79 682.553H1350.27M-57.5202 -92.0004V-80.5538M-57.5202 -80.5538V-69.1072M-57.5202 -80.5538H-68M-57.5202 -80.5538H-47.0404M-57.5202 213.243V224.689M-57.5202 224.689V236.136M-57.5202 224.689H-68M-57.5202 224.689H-47.0404M-57.5202 518.485V529.932M-57.5202 529.932V541.379M-57.5202 529.932H-68M-57.5202 529.932H-47.0404M221.942 -92.0005V-80.5539M221.942 -80.5539V-69.1073M221.942 -80.5539H211.462M221.942 -80.5539H232.422M221.942 213.243V224.689M221.942 224.689V236.136M221.942 224.689H211.462M221.942 224.689H232.422M221.942 518.485V529.932M221.942 529.932V541.379M221.942 529.932H211.462M221.942 529.932H232.422M501.404 -92.0005V-80.5539M501.404 -80.5539V-69.1073M501.404 -80.5539H490.924M501.404 -80.5539H511.883M501.404 213.243V224.689M501.404 224.689V236.136M501.404 224.689H490.924M501.404 224.689H511.883M501.404 518.485V529.932M501.404 529.932V541.379M501.404 529.932H490.924M501.404 529.932H511.883M780.865 -92.0005V-80.5539M780.865 -80.5539V-69.1073M780.865 -80.5539H770.386M780.865 -80.5539H791.345M780.865 213.243V224.689M780.865 224.689V236.136M780.865 224.689H770.386M780.865 224.689H791.345M780.865 518.485V529.932M780.865 529.932V541.379M780.865 529.932H770.386M780.865 529.932H791.345M1060.33 -92.0005V-80.5539M1060.33 -80.5539V-69.1073M1060.33 -80.5539H1049.85M1060.33 -80.5539H1070.81M1060.33 213.243V224.689M1060.33 224.689V236.136M1060.33 224.689H1049.85M1060.33 224.689H1070.81M1060.33 518.485V529.932M1060.33 529.932V541.379M1060.33 529.932H1049.85M1060.33 529.932H1070.81M1339.79 -92.0005V-80.5539M1339.79 -80.5539V-69.1073M1339.79 -80.5539H1329.31M1339.79 -80.5539H1350.27M1339.79 213.243V224.689M1339.79 224.689V236.136M1339.79 224.689H1329.31M1339.79 224.689H1350.27M1339.79 518.485V529.932M1339.79 529.932V541.379M1339.79 529.932H1329.31M1339.79 529.932H1350.27" stroke="url(#paint0_radial_451_82)" stroke-width="1.4634"/>
</g>
</g>
<defs>
<radialGradient id="paint0_radial_451_82" cx="0" cy="0" r="1" gradientUnits="userSpaceOnUse" gradientTransform="translate(711 301) rotate(90) scale(393 629.056)">
<stop offset="0.665789"/>
<stop offset="1" stop-opacity="0.2"/>
</radialGradient>
</defs>
</svg>
