<svg xmlns="http://www.w3.org/2000/svg" version="1.1" viewBox="0 0 1024 1024" width="1024" height="1024">
<path transform="translate(460)" d="m0 0h29v2l13 3 9 5 5 4 11 14 10 13 9 15 12 23 6 12 3 7 4 9 3 9 5 12 3 10 2 3 2 9 3 9 3 10h16l21 2 23 4 20 7 20 10 5 3h8l22-4h29l24 6 13 5 16 6 15 8 14 10 11 9 8 8 7 6 7 8 9 9 10 14 6 7 7 11 12 17 8 13 11 18 7 12 9 19 5 8 12 30 9 24 9 27 6 26 3 15 2 9 5 35 3 32v55l-4 41-5 29-8 34-8 26-10 29-14 32-8 17-10 18-12 19-13 18-11 13-7 8-9 10-15 14-11 9-14 10-16 10-16 8-15 6-18 6-19 4-18 2h-17l-17-2-26-6-6 1-17 11-20 9-22 7-14 3h-48l-29-7-12-5-9 2-24 7-14 3h-47l-22-5-21-7-12-7-11-6-9-6-6-1-17 4-25 4h-26l-24-4-19-6-20-8-21-11-16-11-16-13-12-11-13-13-7-8-13-16-14-20-11-18-11-19-11-23-9-21-9-24-8-26-8-32-6-33-4-34-1-16v-49l2-26 4-30 7-34 11-42 13-40 11-27 11-22 16-26 15-24 11-16 12-17 13-16 9-11 20-20 11-9 16-11 15-8 16-6 22-5 15-2h33l12 2 7 1 19-11 16-7 18-4 27-4h35l2-1 1-7v-27l-5-17-9-22-8-16-7-15-2-6v-11l5-12 7-11 11-11 19-9 10-2z" fill="#FEFEFE"/>
<path transform="translate(460)" d="m0 0h29v2l13 3 9 5 5 4 11 14 10 13 9 15 12 23 6 12 3 7 4 9 3 9 5 12 3 10 2 3 2 9 3 9 3 10h16l21 2 23 4 20 7 20 10 5 3h8l22-4h29l24 6 13 5 16 6 15 8 14 10 11 9 8 8 7 6 7 8 9 9 10 14 6 7 7 11 12 17 8 13 11 18 7 12 9 19 5 8 12 30 9 24 9 27 6 26 3 15 2 9 5 35 3 32v55l-4 41-5 29-8 34-8 26-10 29-14 32-8 17-10 18-12 19-13 18-11 13-7 8-9 10-15 14-11 9-14 10-16 10-16 8-15 6-18 6-19 4-18 2h-17l-17-2-26-6-6 1-17 11-20 9-22 7-14 3h-48l-29-7-12-5-9 2-24 7-14 3h-47l-22-5-21-7-12-7-11-6-9-6-6-1-17 4-25 4h-26l-24-4-19-6-20-8-21-11-16-11-16-13-12-11-13-13-7-8-13-16-14-20-11-18-11-19-11-23-9-21-9-24-8-26-8-32-6-33-4-34-1-16v-49l2-26 4-30 7-34 11-42 13-40 11-27 11-22 16-26 15-24 11-16 12-17 13-16 9-11 20-20 11-9 16-11 15-8 16-6 22-5 15-2h33l12 2 7 1 19-11 16-7 18-4 27-4h35l2-1 1-7v-27l-5-17-9-22-8-16-7-15-2-6v-11l5-12 7-11 11-11 19-9 10-2zm-58 192-13 1-17 5-16 6-16 8-9 6-4 2-8-2-14-2-14-1h-15l-20 2-20 5-25 12-9 6-12 9-8 7-12 12-7 9-9 11-12 16-12 17-10 15-7 12-7 11-23 46-11 28-11 33-12 49-4 24-2 17-2 15-1 21v34l1 17 2 12 2 21 6 35 6 26 10 30 15 37 12 26 11 21 10 16 11 16 12 14 8 11 18 18 13 10 12 9 21 12 21 9 18 6 25 6 18 2 17-2 16-4 18-6 4 1 11 7 13 8 17 8 19 6 20 4 9 1h22l19-3 18-5 16-7 4 2 15 6 13 4 17 3 12 1h13l18-2 17-4 21-8 21-11 10-7 6-4 9 3 26 7 17 2h10l18-2 23-6 21-8 23-12 17-12 13-11 12-11 14-15 11-14 11-15 12-19 10-18 11-21 14-32 11-29 6-19 5-21 7-38 4-39 1-17v-19l-1-19-8-65-5-26-7-26-15-44-9-21-10-19-10-20-12-19-22-33-13-18-13-16-11-12-7-8-10-9-16-12-18-10-24-8-16-3-9-1h-31l-15 4-5 2-5-1-4-4-30-14-15-4-16-3-11-1h-18l-19 2-21 5-16 6-17 9-12 10-4-1-5-5-5-4-29-13-19-6-16-3z" fill="#6C7482"/>
<path transform="translate(366,704)" d="m0 0h7l18 6 22 11 24 9 27 7 28 5 11 1h13l24-1 19-3 31-9 20-8 26-13 14-5h8l10 5 4 5 1 4v14l-4 12-8 11-11 12-8 7-7 7-13 10-16 9-17 7-20 6-23 4-10 1h-39l-24-3-22-5-24-8-21-10-15-10-13-11-14-14-9-13-4-8-2-8 1-9 4-8 5-4z" fill="#6C7482"/>
<path transform="translate(466,20)" d="m0 0h13l13 4 13 10 10 12 11 18 9 17 13 28 13 34 9 26v4l-28 10-29 13-5-1-35-16-12-4-1-1-1-44-3-15-7-21-9-19-8-14-4-8 1-6 6-8 11-9 5-4 11-5z" fill="#FEFEFE"/>
<path transform="translate(343,439)" d="m0 0h6l7 6v4l-6 4-5 6-4 9-1 5v13l4 13 4 6 8 8 8 4 5 1h10l12-3 13-7 11-9h2v25l-3 15-6 15-7 11-9 10-8 7-16 8-16 4h-18l-14-3-16-6-14-9-10-9-6-8-6-12-4-14-1-8v-16l3-15 5-13 7-11 6-7 12-9 16-8 13-4 9-2z" fill="#6C7482"/>
<path transform="translate(284,275)" d="m0 0h55l18 2 23 4 22 6 22 8 28 14 14 10 5 8 2 6v15l-4 12-4 6-6 5-8 3h-13l-17-4-43-15-20-6-18-5-17-2-36-1-11-2-10-5-7-6-5-8-2-8 1-11 6-12 9-9 8-4z" fill="#6C7482"/>
<path transform="translate(687,439)" d="m0 0 10 2 6 3v4l-7 3-5 5-5 10-1 5v19l3 9 4 6 5 5 8 5 10 3h20l10-6 12-12 3-1 1 1v26l-2 15-8 16-8 11-9 9-14 9-11 5-12 3-14 1-14-2-15-5-13-8-10-9-7-7-8-13-5-13-2-10v-21l4-16 8-16 9-12 9-8 16-8 21-7z" fill="#6C7482"/>
<path transform="translate(711,274)" d="m0 0h17l18 2 11 4 9 8 3 8v14l-3 12-5 9-7 6-8 3-6 1-38 1-27 5-22 5-19 6-27 10-12 4-6 1h-15l-10-4-8-8-5-10-1-5v-12l3-9 7-9 12-9 21-10 27-9 28-8 24-4z" fill="#6C7482"/>
<path transform="translate(962,234)" d="m0 0h4v4h-4z" fill="#FEFEFE"/>
<path transform="translate(939,976)" d="m0 0" fill="#FEFEFE"/>
</svg>