<svg width="24" height="24" viewBox="0 0 24 24" fill="none" xmlns="http://www.w3.org/2000/svg">
<g clip-path="url(#clip0_497_84)">
<path d="M10.7841 0.453247H11.4354V0.498158L11.7273 0.565525L11.9294 0.677803L12.0417 0.767626L12.2887 1.082L12.5132 1.37393L12.7153 1.71076L12.9848 2.22724L13.1195 2.49671L13.1869 2.6539L13.2767 2.856L13.3441 3.0581L13.4564 3.32756L13.5237 3.55212L13.5686 3.61949L13.6136 3.82159L13.6809 4.02369L13.7483 4.24824H14.1076L14.5791 4.29316L15.0956 4.38298L15.5447 4.54017L15.9939 4.76472L16.1061 4.83209H16.2858L16.7798 4.74227H17.431L17.9699 4.877L18.2619 4.98928L18.6212 5.12401L18.958 5.30366L19.2724 5.52821L19.5194 5.73032L19.699 5.90996L19.8562 6.04469L20.0134 6.22434L20.2155 6.42644L20.4401 6.74082L20.5748 6.89801L20.732 7.14502L21.0015 7.52676L21.1811 7.81869L21.4281 8.22289L21.5853 8.49235L21.7874 8.91901L21.8997 9.09866L22.1691 9.77232L22.3712 10.3113L22.5733 10.9176L22.7081 11.5014L22.7754 11.8382L22.8204 12.0403L22.9326 12.8263L23 13.5449V14.7799L22.9102 15.7006L22.7979 16.3518L22.6183 17.1153L22.4386 17.6992L22.2141 18.3504L21.8997 19.0689L21.72 19.4507L21.4955 19.8549L21.226 20.2815L20.9341 20.6858L20.6871 20.9777L20.5299 21.1573L20.3278 21.3819L19.9909 21.6963L19.7439 21.8984L19.4296 22.1229L19.0703 22.3475L18.711 22.5271L18.3741 22.6618L17.9699 22.7966L17.5433 22.8864L17.1391 22.9313H16.7573L16.3756 22.8864L15.7917 22.7517L15.657 22.7741L15.2753 23.0211L14.8262 23.2232L14.3321 23.3804L14.0178 23.4478H12.9399L12.2887 23.2906L12.0192 23.1783L11.8171 23.2232L11.2782 23.3804L10.9638 23.4478H9.90838L9.41436 23.3355L8.94279 23.1783L8.67332 23.0211L8.42631 22.8864L8.22421 22.7517L8.08948 22.7292L7.70773 22.819L7.14634 22.9089H6.56249L6.02356 22.819L5.5969 22.6843L5.14779 22.5047L4.67622 22.2576L4.31693 22.0106L3.95764 21.7187L3.68818 21.4717L3.39625 21.1798L3.23906 21.0001L2.94714 20.6408L2.63276 20.1917L2.38575 19.7875L2.13874 19.3609L1.89173 18.8444L1.68963 18.3728L1.48753 17.8339L1.30788 17.25L1.12824 16.5315L0.993504 15.7904L0.903681 15.0269L0.881226 14.6676V13.5673L0.926137 12.9835L1.01596 12.3098L1.17315 11.5463L1.42016 10.6032L1.71208 9.70496L1.95909 9.09866L2.20611 8.60463L2.5654 8.02079L2.90223 7.48185L3.14924 7.12256L3.41871 6.74082L3.71063 6.38153L3.91273 6.13452L4.36184 5.6854L4.60886 5.4833L4.96815 5.23629L5.30498 5.05665L5.66427 4.92191L6.15829 4.80964L6.49513 4.76472H7.23616L7.50563 4.80964L7.66282 4.83209L8.08948 4.58508L8.44877 4.42789L8.85297 4.33807L9.45927 4.24824H10.2452L10.2901 4.22579L10.3126 4.0686V3.4623L10.2003 3.08055L9.9982 2.58653L9.81856 2.22724L9.66137 1.89041L9.61646 1.75567V1.50866L9.72874 1.23919L9.88592 0.992182L10.1329 0.74517L10.5596 0.54307L10.7841 0.498158V0.453247ZM9.48172 4.76472L9.1898 4.78718L8.80806 4.89946L8.44877 5.03419L8.08948 5.21384L7.88738 5.34857L7.79755 5.39348L7.61791 5.34857L7.30353 5.30366L6.98915 5.2812H6.65232L6.2032 5.32611L5.75409 5.43839L5.1927 5.70786L4.9906 5.84259L4.72113 6.04469L4.54149 6.20188L4.27202 6.47135L4.11483 6.67345L3.91273 6.92046L3.64327 7.27975L3.3738 7.6615L3.14924 7.99833L2.99205 8.2678L2.83486 8.51481L2.31838 9.54777L2.07137 10.1765L1.82436 10.9176L1.55489 12.0179L1.46507 12.5568L1.42016 12.9386L1.37525 13.2754L1.35279 13.747V14.5105L1.37525 14.8922L1.42016 15.1617L1.46507 15.6332L1.59981 16.4192L1.73454 17.003L1.95909 17.6767L2.29593 18.5076L2.5654 19.0914L2.81241 19.563L3.03696 19.9223L3.28398 20.2815L3.55344 20.5959L3.73309 20.8429L4.13729 21.2471L4.42921 21.4717L4.69868 21.6738L5.17025 21.9433L5.64181 22.1454L6.04602 22.2801L6.60741 22.4148L7.01161 22.4597L7.39335 22.4148L7.75264 22.325L8.15684 22.1903L8.24667 22.2127L8.49368 22.3699L8.7856 22.5496L9.16735 22.7292L9.594 22.8639L10.0431 22.9538L10.2452 22.9762H10.7392L11.1659 22.9089L11.5701 22.7966L11.9294 22.6394L12.0192 22.6843L12.356 22.819L12.648 22.9089L13.0297 22.9762L13.2992 22.9987H13.5911L13.9953 22.9538L14.377 22.8639L14.8486 22.6843L15.3202 22.4373L15.5447 22.2801L15.6795 22.1903L15.8816 22.2576L16.4654 22.4148L16.8472 22.4597H17.0717L17.4759 22.4148L17.9924 22.2801L18.464 22.1005L18.9804 21.831L19.3622 21.5615L19.6541 21.3145L19.9236 21.0675L20.238 20.7307L20.485 20.4163L20.732 20.0794L21.0015 19.6528L21.226 19.2486L21.473 18.777L21.7874 18.0584L22.0344 17.4072L22.1691 16.9806L22.2814 16.509L22.4386 15.6557L22.5284 14.7799L22.5509 14.3982V13.9715L22.5284 13.5449L22.3488 12.0853L22.2365 11.5014L22.0793 10.9176L21.7425 9.92951L21.5404 9.45795L21.3158 9.03129L21.0913 8.58218L20.8218 8.15552L20.3278 7.41449L20.0359 7.01028L19.7439 6.651L19.4969 6.38153L19.3397 6.20188L19.1152 5.99978L18.7559 5.73032L18.3517 5.50576L17.8128 5.32611L17.4535 5.25875L17.2514 5.23629H16.5552L16.2184 5.32611L16.1061 5.37103L15.9939 5.34857L15.904 5.25875L15.2304 4.94437L14.8935 4.85455L14.5342 4.78718L14.2872 4.76472H13.883L13.4564 4.80964L12.9848 4.92191L12.6255 5.05665L12.2438 5.25875L11.9743 5.4833L11.8845 5.46085L11.7722 5.34857L11.6599 5.25875L11.0087 4.96682L10.582 4.83209L10.2228 4.76472H9.48172Z" fill="#6C7482" stroke="#6A7282" stroke-width="1.16927"/>
<path d="M8.67334 16.1889H8.65834L8.64455 16.1948L8.48736 16.2622L8.47825 16.2661L8.4705 16.2723L8.35822 16.3621L8.34569 16.3721L8.33851 16.3865L8.24869 16.5661L8.24286 16.5778L8.24142 16.5907L8.21896 16.7928L8.21751 16.8059L8.2207 16.8186L8.26561 16.9983L8.26755 17.006L8.27114 17.0132L8.36096 17.1929L8.3603 17.1932L8.36624 17.2018L8.56834 17.4937L8.56736 17.4944L8.57675 17.5038L8.89113 17.8182L8.89095 17.8183L8.8956 17.8223L9.18753 18.0693L9.18722 18.0697L9.19419 18.0743L9.53103 18.2989L9.53061 18.2995L9.54015 18.304L10.0117 18.5286L10.0115 18.5291L10.02 18.5319L10.559 18.7116L10.5588 18.7119L10.5659 18.7135L11.0599 18.8258L11.0598 18.8261L11.067 18.8271L11.606 18.8944L11.6059 18.895H11.615H12.4908V18.8953L12.4981 18.8946L12.7226 18.8722L12.7226 18.8724L12.7279 18.8714L13.2444 18.7816L13.2444 18.7821L13.2528 18.7796L13.7019 18.6449L13.702 18.6452L13.7088 18.6425L14.0905 18.4853L14.0907 18.4858L14.0985 18.4814L14.4578 18.2793L14.4582 18.28L14.4665 18.2735L14.7585 18.049L14.7588 18.0495L14.7656 18.0427L14.921 17.8873L15.0989 17.7317L15.0991 17.732L15.1046 17.726L15.3516 17.4566L15.352 17.4569L15.3568 17.4502L15.5365 17.2032L15.5431 17.194L15.5467 17.1833L15.6365 16.9138L15.6403 16.9026V16.8907V16.5763V16.5673L15.6381 16.5586L15.6157 16.4688L15.6118 16.4533L15.6018 16.4409L15.512 16.3286L15.502 16.3161L15.4876 16.3089L15.2631 16.1966L15.2476 16.1889H15.2304H15.0507H15.0381L15.0262 16.1931L14.7118 16.3054L14.7116 16.3049L14.7037 16.3089L14.1225 16.5994L13.6796 16.7766L12.9913 16.9764L12.5734 17.0424L12.0402 17.0647H11.7531L11.5125 17.0428L10.8896 16.9316L10.2897 16.776L9.75801 16.5766L9.26741 16.3313L9.26774 16.3307L9.25784 16.3274L8.85364 16.1926L8.84239 16.1889H8.83053H8.67334Z" fill="#6C7482" stroke="#6A7282" stroke-width="0.146159"/>
<path d="M12.6217 4.55203L12.6217 4.552L12.6209 4.55236L11.973 4.84282L11.8655 4.82132L11.0808 4.46257L11.0808 4.46252L11.0796 4.46213L10.8127 4.37315L10.7953 4.35575L10.7729 3.37221L10.7731 3.3722L10.7727 3.37026L10.7053 3.03342L10.7054 3.03341L10.705 3.03208L10.5478 2.56051L10.5479 2.56048L10.5473 2.55925L10.3452 2.1326L10.3452 2.13258L10.3448 2.13183L10.1653 1.81772L10.0773 1.64162L10.0987 1.51319L10.2309 1.33683L10.4768 1.13563L10.4769 1.13559L10.588 1.04672L10.8328 0.935444L10.9203 0.913572H11.2091L11.4975 1.0023L11.7868 1.22486L12.0101 1.49275L12.2565 1.89595L12.4583 2.27713L12.7499 2.90527L13.0416 3.66823L13.2431 4.25012V4.33014L12.6217 4.55203Z" fill="#FEFEFE" stroke="#6A7282" stroke-width="0.0224556"/>
<path d="M8.15686 10.2382V10.2377L8.14879 10.2386L7.94669 10.2611L7.94664 10.2607L7.93891 10.2624L7.73681 10.3073L7.73676 10.3071L7.73117 10.3088L7.43925 10.3986L7.43895 10.3977L7.42806 10.4031L7.06877 10.5827L7.06823 10.5817L7.0576 10.5896L6.78813 10.7918L6.78171 10.7966L6.77649 10.8027L6.64176 10.9598L6.6412 10.9594L6.63559 10.9682L6.4784 11.2152L6.47448 11.2214L6.47185 11.2282L6.35957 11.5201L6.35858 11.5197L6.35612 11.532L6.28875 11.8688L6.28733 11.8759V11.8832V12.2425H6.28676L6.2879 12.2515L6.31035 12.4312L6.30949 12.4313L6.3126 12.4422L6.40242 12.7566L6.4012 12.7569L6.40733 12.7692L6.54206 13.0386L6.54099 13.0392L6.54896 13.0498L6.68369 13.2294L6.68797 13.2351L6.69327 13.2399L6.91783 13.442L6.91718 13.4427L6.9272 13.4492L7.24157 13.6513L7.24813 13.6555L7.25543 13.6582L7.61472 13.793L7.61444 13.7937L7.62507 13.796L7.93945 13.8634L7.94702 13.865H7.95476H8.35896H8.36796L8.37669 13.8628L8.73598 13.773L8.74376 13.771L8.75093 13.7674L9.11022 13.5878L9.11861 13.5836L9.12566 13.5774L9.30531 13.4202L9.30565 13.4206L9.31151 13.4141L9.51361 13.1896L9.51436 13.1903L9.52094 13.1799L9.67813 12.9329L9.67921 12.9336L9.68433 12.9208L9.81906 12.584L9.82022 12.5844L9.82287 12.5712L9.89024 12.2343L9.89166 12.2272V12.22V11.6586V11.5855H9.81858H9.77366H9.74758L9.72739 11.6021L9.48582 11.7997L9.20813 11.9492L8.95627 12.0122H8.74794L8.65236 11.9931L8.49207 11.9129L8.32593 11.7468L8.24603 11.6269L8.16257 11.3557V11.082L8.18202 10.9848L8.26442 10.7994L8.36341 10.6806L8.48932 10.5966L8.52186 10.5749V10.5358V10.446V10.4124L8.49634 10.3905L8.33915 10.2558L8.31863 10.2382H8.29159H8.15686Z" fill="#6C7482" stroke="#6A7282" stroke-width="0.146159"/>
<path d="M6.83195 6.55546V6.55489L6.82289 6.55602L6.64324 6.57848L6.63082 6.58003L6.61963 6.58563L6.43998 6.67545L6.42937 6.68076L6.42099 6.68914L6.21889 6.89124L6.2105 6.89963L6.2052 6.91024L6.07046 7.1797L6.0643 7.19204L6.06305 7.20577L6.04059 7.45278L6.03947 7.46511L6.04248 7.47712L6.08739 7.65677L6.09019 7.66798L6.09631 7.67777L6.20859 7.85742L6.21452 7.8669L6.223 7.87417L6.38019 8.00891L6.38702 8.01476L6.39507 8.01879L6.61963 8.13106L6.62896 8.13573L6.63923 8.1376L6.88625 8.18251L6.88609 8.18335L6.89729 8.18366L7.70243 8.20603L8.07533 8.2499L8.47338 8.36047L8.92024 8.49452L9.8843 8.83082L9.88417 8.8312L9.89163 8.83296L10.2734 8.92278L10.2816 8.92473H10.2901H10.582H10.5953L10.6077 8.92007L10.7873 8.85271L10.7989 8.84835L10.8085 8.84042L10.9432 8.72814L10.9513 8.72136L10.9572 8.71254L11.047 8.5778L11.0525 8.56966L11.0556 8.56038L11.1454 8.29091L11.1491 8.27966V8.2678V7.93097V7.91911L11.1454 7.90786L11.1005 7.77312L11.0977 7.76487L11.0931 7.7575L10.9808 7.57785L10.9732 7.56555L10.9613 7.55712L10.647 7.33256L10.6475 7.33183L10.6372 7.32667L10.0084 7.01229L10.0086 7.01185L10.0007 7.00897L9.50669 6.82933L9.50677 6.82909L9.50094 6.8275L9.00692 6.69277L9.007 6.69246L9.00021 6.69127L8.48373 6.60145L8.48376 6.60132L8.47928 6.60082L8.07508 6.55591L8.07513 6.55546H8.06701H6.83195Z" fill="#6C7482" stroke="#6A7282" stroke-width="0.146159"/>
<path d="M15.896 10.2396L15.8856 10.2375L15.875 10.2385L15.628 10.261L15.6196 10.2617L15.6115 10.2644L15.1399 10.4216L15.1397 10.4209L15.1304 10.4256L14.7711 10.6052L14.7624 10.6095L14.7552 10.6159L14.5531 10.7956L14.5476 10.8005L14.5432 10.8064L14.3411 11.0758L14.3401 11.0751L14.3342 11.087L14.1546 11.4463L14.151 11.4535L14.149 11.4612L14.0592 11.8205L14.057 11.8293V11.8383V12.3098V12.3171L14.0584 12.3242L14.1033 12.5487L14.1023 12.5489L14.1068 12.5606L14.2191 12.8525L14.2179 12.853L14.225 12.8646L14.4047 13.1565L14.4092 13.1638L14.4153 13.1699L14.5724 13.3271L14.5724 13.3272L14.5752 13.3297L14.7998 13.5318L14.799 13.5327L14.8104 13.5398L15.1023 13.7194L15.1095 13.7238L15.1175 13.7265L15.4543 13.8388L15.4539 13.8399L15.4671 13.8418L15.7815 13.8867L15.7892 13.8878L15.797 13.8872L16.1114 13.8648L16.1115 13.8659L16.1239 13.8628L16.3934 13.7954L16.3937 13.7966L16.4059 13.7911L16.6529 13.6788L16.6532 13.6795L16.6622 13.6737L16.9766 13.4716L16.9832 13.4674L16.9887 13.4618L17.1908 13.2597L17.1915 13.2604L17.1983 13.251L17.3779 13.004L17.3787 13.0046L17.3842 12.9937L17.5638 12.6344L17.5693 12.6235L17.5709 12.6114L17.6158 12.2746L17.6164 12.2747V12.2649V11.6811V11.6508L17.595 11.6294L17.5726 11.6069L17.5406 11.575L17.4978 11.5893L17.4304 11.6117L17.4141 11.6172L17.4019 11.6294L17.1387 11.8925L16.9393 12.0122H16.5211L16.3162 11.9507L16.152 11.8481L16.0507 11.7468L15.9703 11.6262L15.9098 11.4447V11.0371L15.9289 10.9415L16.0315 10.7363L16.1255 10.6424L16.2697 10.5806L16.314 10.5616V10.5134V10.4236V10.3784L16.2736 10.3582L16.1389 10.2908L16.1301 10.2864L16.1205 10.2845L15.896 10.2396Z" fill="#6C7482" stroke="#6A7282" stroke-width="0.146159"/>
<path d="M16.4205 6.53276V6.53266L16.4168 6.53285L15.541 6.57776L15.541 6.57729L15.5327 6.57866L14.9938 6.66848L14.9937 6.66802L14.9857 6.6703L14.357 6.84995L14.357 6.84988L14.354 6.85088L13.7477 7.05298L13.7475 7.05246L13.7393 7.05633L13.2678 7.28089L13.2612 7.28403L13.2554 7.28841L12.9859 7.49051L12.9781 7.49638L12.972 7.5041L12.8149 7.7062L12.8072 7.71609L12.8032 7.72796L12.7358 7.93006L12.7321 7.94131V7.95317V8.22264V8.22988L12.7335 8.23697L12.756 8.34925L12.7579 8.35885L12.7623 8.3676L12.8745 8.59216L12.8798 8.60276L12.8882 8.61115L13.0679 8.79079L13.0785 8.8014L13.0924 8.80697L13.317 8.89679L13.33 8.90202H13.3441H13.6809V8.90303L13.693 8.90103L13.8277 8.87857L13.8278 8.87946L13.8388 8.87581L14.1083 8.78599L14.1083 8.78603L14.1105 8.78519L14.7152 8.56126L15.1372 8.42797L15.6269 8.31668L16.2261 8.20572L17.0737 8.18342L17.0737 8.18413L17.0838 8.18245L17.2185 8.15999L17.2187 8.16136L17.2321 8.15633L17.4118 8.08897L17.4239 8.08443L17.4337 8.07602L17.5909 7.94129L17.6008 7.93276L17.6072 7.9213L17.7195 7.71919L17.7241 7.71077L17.7265 7.70143L17.7939 7.43196L17.796 7.42323V7.41424V7.09986V7.08661L17.7914 7.0742L17.724 6.89455L17.7177 6.87761L17.7041 6.86559L17.502 6.68595L17.4916 6.67666L17.4785 6.67189L17.2314 6.58207L17.2232 6.57908L17.2145 6.57811L16.8103 6.5332L16.8104 6.53276H16.8023H16.4205Z" fill="#6C7482" stroke="#6A7282" stroke-width="0.146159"/>
</g>
<defs>
<clipPath id="clip0_497_84">
<rect width="24" height="24" fill="white"/>
</clipPath>
</defs>
</svg>
